<?xml version="1.0" standalone="no"?>
<!DOCTYPE svg PUBLIC "-//W3C//DTD SVG 20010904//EN"
 "http://www.w3.org/TR/2001/REC-SVG-20010904/DTD/svg10.dtd">
<svg version="1.0" xmlns="http://www.w3.org/2000/svg"
 width="837.000000pt" height="709.000000pt" viewBox="0 0 837.000000 709.000000"
 preserveAspectRatio="xMidYMid meet">
<metadata>
Created by potrace 1.12, written by Peter Selinger 2001-2015
</metadata>
<g transform="translate(0.000000,709.000000) scale(0.100000,-0.100000)"
fill="#000000" stroke="none">
<path d="M0 7061 c0 -16 5 -33 11 -37 6 -3 9 -15 6 -25 -8 -30 7 -31 57 -3 45
25 45 26 33 57 -12 29 -18 32 -60 35 -46 3 -47 3 -47 -27z"/>
<path d="M110 7084 c0 -3 7 -18 16 -34 15 -24 20 -26 43 -18 14 5 62 20 106
33 l80 24 -122 0 c-68 1 -123 -2 -123 -5z"/>
<path d="M365 7070 c-27 -10 -87 -29 -132 -42 l-82 -23 59 -116 c70 -137 96
-250 85 -363 -7 -78 -13 -75 85 -42 91 30 268 84 369 112 57 16 106 34 108 41
4 11 -48 365 -64 431 -5 22 -6 22 -192 21 -153 -1 -195 -4 -236 -19z"/>
<path d="M810 7078 c0 -7 7 -52 15 -100 26 -149 47 -272 50 -288 2 -8 4 -23 4
-34 1 -22 18 -20 132 15 51 15 73 27 79 43 7 17 9 18 9 4 1 -10 6 -18 12 -18
8 0 9 18 5 58 -9 70 -45 291 -52 315 -5 15 -20 17 -130 17 -92 0 -124 -3 -124
-12z"/>
<path d="M1094 7073 c3 -10 12 -61 21 -113 24 -143 37 -203 49 -219 8 -11 8
-13 -1 -7 -7 4 -13 2 -13 -3 0 -16 5 -15 136 25 115 35 148 49 140 63 -4 6 -7
24 -26 156 -18 127 0 115 -166 115 -134 0 -145 -1 -140 -17z"/>
<path d="M1400 7078 c0 -27 43 -264 50 -271 7 -8 431 117 528 155 55 21 56 25
46 91 l-7 37 -308 0 c-232 0 -309 -3 -309 -12z"/>
<path d="M2045 7048 c4 -24 9 -45 11 -47 4 -5 284 80 284 86 0 2 -68 3 -151 3
l-151 0 7 -42z"/>
<path d="M2365 7074 c-22 -8 -100 -32 -173 -55 -123 -38 -133 -43 -128 -63 3
-11 8 -41 12 -66 11 -75 75 -444 80 -462 4 -14 9 -15 29 -6 32 15 36 29 36
130 0 79 2 90 25 117 26 31 128 71 180 71 42 0 99 -37 156 -100 74 -81 83 -79
75 16 -7 76 -27 225 -48 362 l-12 72 -96 -1 c-53 -1 -114 -8 -136 -15z"/>
<path d="M2626 7018 c8 -40 18 -113 24 -163 15 -132 30 -248 35 -261 4 -14 13
-11 315 76 118 34 219 66 224 71 5 4 3 42 -4 89 -13 82 -13 82 -41 78 -23 -4
-30 0 -39 23 -7 15 -22 37 -35 49 -13 13 -27 37 -31 54 -12 57 -9 56 -244 56
l-217 0 13 -72z"/>
<path d="M3093 7053 c4 -20 17 -47 31 -60 13 -12 27 -32 31 -43 3 -11 15 -20
26 -20 10 0 19 1 19 3 0 9 -22 124 -26 140 -4 12 -16 17 -46 17 l-41 0 6 -37z"/>
<path d="M3196 7058 c16 -97 27 -128 50 -143 13 -8 24 -24 24 -34 0 -12 10
-21 28 -26 15 -3 39 -18 54 -32 23 -22 32 -24 81 -19 30 3 72 12 93 20 22 8
102 33 179 57 77 23 143 45 147 48 6 5 -2 71 -17 139 l-5 22 -320 0 -319 0 5
-32z"/>
<path d="M3860 7072 c0 -36 23 -132 32 -132 11 0 472 141 477 146 2 2 -111 4
-252 4 -243 0 -257 -1 -257 -18z"/>
<path d="M4423 7083 c-19 -7 -16 -53 2 -53 8 0 15 -4 15 -9 0 -9 69 1 110 17
14 5 79 17 145 26 66 9 131 18 145 20 14 2 -72 4 -190 4 -118 0 -221 -2 -227
-5z"/>
<path d="M5570 7037 c0 -48 14 -152 25 -185 4 -10 9 -10 27 0 13 7 68 27 123
44 l100 32 62 -54 c58 -52 114 -77 126 -57 3 5 -14 67 -37 139 l-43 129 -192
3 -191 2 0 -53z"/>
<path d="M5980 7076 c0 -12 51 -178 75 -243 3 -8 16 -8 52 4 26 8 78 23 115
34 37 10 86 26 108 35 38 15 41 19 37 48 -2 17 -13 55 -23 84 l-19 52 -172 0
c-144 0 -173 -2 -173 -14z"/>
<path d="M6354 7073 c10 -35 40 -138 41 -140 1 -2 42 9 92 23 99 29 112 42 98
105 l-7 29 -114 0 c-105 0 -115 -2 -110 -17z"/>
<path d="M6598 7045 c5 -54 5 -54 126 -11 127 44 124 56 -16 56 l-113 0 3 -45z"/>
<path d="M6840 7081 c0 -5 9 -7 20 -4 11 3 20 7 20 9 0 2 -9 4 -20 4 -11 0
-20 -4 -20 -9z"/>
<path d="M6904 7069 l-61 -19 14 -57 c8 -32 18 -71 23 -88 4 -16 15 -55 24
-85 28 -102 75 -252 79 -257 10 -9 197 52 197 66 0 7 -13 59 -29 115 -16 55
-44 156 -62 223 l-34 123 -45 -1 c-25 0 -73 -9 -106 -20z"/>
<path d="M7096 7003 c13 -49 42 -153 64 -232 23 -80 42 -146 44 -148 1 -1 47
10 102 25 113 32 106 18 72 151 -16 61 -26 85 -40 89 -10 2 -18 8 -18 12 0 4
-14 13 -30 20 -34 14 -101 65 -112 85 -5 8 2 19 20 30 l27 18 -19 -21 c-19
-22 -19 -22 0 -43 10 -12 42 -33 69 -46 28 -14 53 -31 57 -37 16 -25 19 6 5
51 -9 26 -21 67 -27 91 l-11 42 -114 0 -114 0 25 -87z"/>
<path d="M7320 7078 c0 -7 11 -49 24 -93 22 -77 24 -80 55 -83 37 -4 42 -22 5
-22 -22 0 -25 -3 -20 -22 3 -13 13 -57 22 -98 9 -41 18 -76 19 -78 1 -1 15 2
31 7 16 6 62 19 102 31 62 18 72 24 72 44 0 16 -12 29 -40 45 -22 12 -42 22
-45 21 -15 -1 -16 1 -6 14 11 13 17 12 45 -5 l33 -19 -32 120 c-18 67 -36 127
-39 135 -7 20 -226 22 -226 3z"/>
<path d="M7566 7068 c4 -13 22 -76 40 -140 25 -93 38 -122 61 -142 15 -14 31
-26 34 -26 14 0 145 42 153 50 5 5 -7 66 -29 144 l-39 136 -113 0 c-114 0
-114 0 -107 -22z"/>
<path d="M7816 7038 c54 -185 66 -218 80 -218 17 0 176 50 186 59 4 3 -6 51
-21 106 l-28 100 -116 3 -116 3 15 -53z"/>
<path d="M8056 7063 c4 -16 17 -62 29 -103 25 -87 12 -84 160 -38 55 16 106
32 113 34 8 2 12 25 12 69 l0 65 -160 0 -160 0 6 -27z"/>
<path d="M5460 7076 c0 -2 7 -6 15 -10 8 -3 15 -1 15 4 0 6 -7 10 -15 10 -8 0
-15 -2 -15 -4z"/>
<path d="M4245 7029 c-385 -119 -355 -107 -355 -135 0 -14 7 -56 16 -94 15
-68 15 -68 46 -63 19 3 64 33 122 82 107 90 134 107 239 145 42 15 79 31 81
35 6 9 -5 71 -13 71 -3 -1 -64 -19 -136 -41z"/>
<path d="M5115 7061 c-54 -5 -58 -7 -38 -18 12 -7 35 -13 51 -13 17 0 32 -6
35 -13 6 -16 64 -20 73 -6 12 20 44 -23 44 -60 0 -20 7 -45 15 -55 14 -19 15
-18 15 10 0 16 3 59 7 97 l6 67 -74 -2 c-41 -1 -101 -4 -134 -7z"/>
<path d="M5338 7008 c-3 -127 3 -149 51 -206 l20 -23 73 22 c40 12 76 25 81
29 4 3 0 44 -10 91 -18 83 -19 84 -67 117 -38 25 -59 32 -97 32 l-49 0 -2 -62z"/>
<path d="M5003 7044 c-13 -34 21 -351 39 -370 5 -4 212 52 262 72 38 15 -1
144 -44 144 -7 0 -8 13 -4 35 8 42 -1 69 -18 59 -20 -12 -82 -4 -91 12 -4 8
-21 14 -37 14 -16 0 -42 11 -58 25 -35 29 -41 30 -49 9z"/>
<path d="M4830 7043 c-156 -15 -353 -59 -388 -86 -8 -7 -11 -25 -6 -61 12
-107 35 -273 45 -323 l10 -52 72 24 c183 61 381 115 424 115 l33 0 -6 43 c-3
23 -12 78 -20 123 -8 44 -14 98 -14 120 0 22 -5 45 -12 52 -9 9 -9 12 0 12 7
0 12 5 12 11 0 6 -7 8 -15 5 -9 -3 -18 1 -21 9 -6 15 -31 17 -114 8z"/>
<path d="M5500 7046 c0 -2 7 -7 16 -10 8 -3 12 -2 9 4 -6 10 -25 14 -25 6z"/>
<path d="M6720 7014 c-52 -18 -99 -35 -104 -37 -7 -2 34 -153 110 -405 23 -76
27 -82 47 -77 160 46 185 57 179 79 -20 84 -129 467 -134 471 -2 1 -46 -13
-98 -31z"/>
<path d="M105 6992 c-11 -2 -28 -10 -38 -17 -17 -12 -16 -13 5 -19 23 -6 22
-7 -12 -38 -47 -43 -60 -85 -60 -198 l0 -95 37 -24 c27 -18 51 -24 91 -24 41
0 56 -4 65 -18 7 -11 17 -19 24 -19 19 0 16 -17 -8 -41 -25 -25 -22 -28 23
-35 34 -6 35 -5 41 32 20 117 -5 240 -73 373 -60 117 -69 129 -95 123z"/>
<path d="M1990 6951 c-19 -10 -91 -35 -160 -55 -69 -21 -183 -55 -253 -77
l-128 -40 7 -37 c3 -20 12 -68 19 -107 7 -38 19 -99 25 -135 48 -271 43 -255
77 -258 27 -3 546 147 560 162 3 2 -13 107 -36 233 -49 277 -61 333 -69 333
-4 -1 -23 -9 -42 -19z"/>
<path d="M6488 6937 c-80 -29 -88 -34 -88 -58 0 -15 25 -114 56 -220 31 -107
59 -202 61 -211 3 -10 12 -18 21 -18 30 0 192 53 192 63 0 29 -140 477 -148
476 -4 0 -46 -15 -94 -32z"/>
<path d="M4307 6917 c-89 -33 -181 -97 -310 -218 l-50 -47 6 -88 c5 -83 12
-134 22 -160 6 -18 76 -22 125 -8 25 8 59 18 75 23 17 5 90 26 163 47 80 22
132 42 132 49 0 17 -47 340 -56 383 -4 17 -12 32 -18 32 -6 0 -4 5 4 10 26 17
-3 10 -93 -23z"/>
<path d="M10 6925 c-17 -21 -9 -27 13 -10 10 7 14 16 9 19 -5 3 -15 -1 -22 -9z"/>
<path d="M8348 6935 c-3 -3 -29 -12 -59 -20 -30 -9 -76 -21 -102 -29 -27 -7
-53 -18 -58 -23 -6 -6 -5 -36 2 -82 10 -61 16 -74 35 -81 13 -5 29 -18 36 -29
12 -20 13 -20 39 5 l27 25 21 -34 c15 -24 30 -36 51 -39 l30 -5 0 159 c0 141
-4 170 -22 153z"/>
<path d="M3740 6874 c-58 -19 -145 -46 -195 -60 -49 -15 -91 -28 -93 -29 -10
-9 51 -98 94 -137 28 -26 54 -57 57 -68 5 -21 -8 -29 -15 -8 -2 6 -9 8 -16 4
-8 -5 -6 -13 8 -28 25 -27 25 -31 0 -53 -22 -20 -20 -22 -24 35 -1 8 -9 16
-19 18 -23 5 -22 16 6 36 l22 16 -46 42 c-26 24 -57 64 -70 89 l-24 46 -78
-24 c-44 -13 -81 -31 -84 -39 -3 -9 13 -115 35 -237 22 -122 44 -241 47 -265
6 -38 9 -42 28 -36 21 6 85 55 166 126 21 19 31 33 23 36 -20 6 -14 31 7 25
40 -10 117 54 180 150 14 23 57 71 94 107 l67 65 -23 109 c-12 60 -27 110 -32
112 -6 1 -57 -13 -115 -32z"/>
<path d="M3237 6824 c7 -43 14 -79 16 -81 2 -1 27 5 56 15 l52 18 -21 26 c-12
16 -35 30 -55 34 -27 5 -34 11 -37 32 -2 14 -8 27 -14 29 -7 2 -6 -21 3 -73z"/>
<path d="M5720 6872 c-65 -24 -77 -32 -93 -64 -17 -34 -17 -40 -1 -105 9 -37
18 -97 21 -133 11 -148 31 -252 52 -266 13 -9 18 -21 14 -36 -3 -13 -1 -19 4
-13 4 6 19 11 33 11 101 6 395 45 403 53 7 7 -2 58 -28 158 -20 81 -45 183
-55 226 -10 43 -20 81 -23 83 -2 3 -22 8 -43 11 -27 4 -57 21 -96 54 -66 58
-81 59 -188 21z"/>
<path d="M6272 6869 l-92 -30 0 -36 c0 -32 24 -129 50 -203 5 -14 21 -70 36
-125 15 -55 30 -104 34 -108 10 -11 191 44 197 61 5 13 -58 244 -98 362 -11
30 -19 64 -19 77 0 12 -3 24 -8 27 -4 2 -49 -9 -100 -25z"/>
<path d="M8045 6843 c-74 -17 -155 -47 -156 -56 -2 -17 1 -38 11 -77 9 -33 12
-35 49 -35 35 0 40 3 45 26 6 32 42 45 55 21 8 -14 12 -14 22 -5 10 10 18 8
37 -10 l25 -22 -6 25 c-35 155 -29 145 -82 133z"/>
<path d="M6103 6814 c-18 -8 -33 -20 -33 -27 0 -6 25 -114 56 -239 l56 -226
45 13 c25 8 47 16 50 18 2 3 0 20 -5 39 -5 18 -33 112 -61 210 -28 97 -51 188
-51 202 0 29 -10 31 -57 10z"/>
<path d="M5340 6792 c0 -34 5 -38 30 -22 13 8 12 13 -7 32 l-23 22 0 -32z"/>
<path d="M5473 6777 c-52 -17 -63 -25 -63 -43 0 -14 -8 -25 -20 -29 -16 -5
-20 -14 -19 -38 1 -18 0 -39 -2 -47 -3 -11 6 -16 32 -18 37 -3 37 -3 44 -58 6
-52 9 -57 41 -70 30 -12 34 -18 28 -37 -15 -45 -11 -62 16 -62 35 0 50 -12 50
-40 0 -13 3 -30 6 -39 7 -18 49 -22 60 -5 8 14 -21 256 -47 379 -11 52 -20
101 -21 108 -1 6 -5 12 -9 12 -4 0 -13 2 -21 4 -7 2 -41 -5 -75 -17z"/>
<path d="M7791 6770 c-77 -23 -81 -26 -43 -35 16 -3 42 -19 57 -35 37 -38 91
-43 81 -7 -3 12 -9 39 -12 60 -4 20 -9 37 -13 36 -3 0 -35 -9 -70 -19z"/>
<path d="M1390 6768 c-105 -28 -182 -62 -191 -85 -5 -13 -13 -21 -19 -18 -14
9 -3 -69 68 -475 4 -25 11 -44 15 -43 72 17 267 83 267 90 0 2 -11 65 -25 141
-15 75 -35 191 -46 257 -12 66 -24 125 -27 131 -5 7 -18 8 -42 2z"/>
<path d="M7650 6760 c0 -5 5 -10 11 -10 5 0 7 5 4 10 -3 6 -8 10 -11 10 -2 0
-4 -4 -4 -10z"/>
<path d="M5358 6743 c-13 -3 -18 -14 -18 -37 0 -19 -3 -49 -6 -67 -4 -26 -3
-30 5 -19 6 8 11 31 11 50 0 24 6 39 20 48 11 7 20 17 20 22 0 10 -3 11 -32 3z"/>
<path d="M7663 6734 c-8 -4 -9 -14 -2 -37 6 -18 10 -85 9 -149 l-1 -118 40 0
c40 0 41 1 47 41 4 22 14 47 22 56 10 10 17 39 19 80 4 76 -9 99 -63 109 -19
3 -37 10 -40 15 -6 10 -12 10 -31 3z"/>
<path d="M5305 6725 c-5 -2 -65 -20 -132 -41 -121 -37 -123 -38 -123 -67 0
-27 61 -427 76 -499 7 -35 15 -35 138 3 149 46 135 34 120 109 -68 342 -75
383 -68 441 4 32 5 59 3 58 -2 0 -8 -2 -14 -4z"/>
<path d="M2337 6701 c-27 -9 -60 -27 -74 -39 -24 -22 -25 -27 -21 -105 6 -98
-4 -132 -44 -153 -30 -16 -31 -17 -24 -76 7 -73 12 -81 36 -66 15 10 23 9 39
-6 12 -11 21 -28 21 -38 0 -17 -5 -19 -30 -13 -22 5 -32 3 -36 -9 -6 -15 26
-222 48 -313 10 -42 11 -43 37 -28 33 18 146 54 331 106 322 90 333 93 338
107 6 19 -48 183 -58 177 -6 -4 -10 2 -10 12 0 21 -97 143 -144 183 -54 45
-67 60 -73 90 -4 23 -11 30 -29 30 -17 0 -35 16 -64 55 -74 100 -137 122 -243
86z"/>
<path d="M3065 6674 c-82 -24 -167 -49 -188 -55 -36 -10 -37 -10 -23 -37 8
-15 29 -76 46 -137 18 -60 40 -116 49 -123 11 -9 12 -15 4 -18 -18 -8 34 -150
63 -173 13 -10 24 -24 24 -30 0 -17 15 -14 157 26 153 44 142 25 113 188 -37
201 -70 392 -70 399 0 10 -20 6 -175 -40z"/>
<path d="M7520 6693 c-47 -14 -87 -27 -89 -29 -5 -4 28 -116 105 -361 36 -117
48 -143 63 -143 11 0 21 9 25 23 11 44 28 218 22 224 -3 3 -14 -1 -24 -10 -10
-10 -26 -17 -35 -17 -9 0 -22 -9 -30 -21 -10 -14 -17 -17 -22 -9 -9 15 23 50
45 50 10 0 23 7 30 15 7 8 18 15 25 15 23 0 33 185 14 253 -12 44 -13 44 -129
10z"/>
<path d="M8016 6698 c-3 -10 -8 -25 -11 -34 -4 -13 -13 -15 -39 -10 -19 4 -37
2 -40 -3 -3 -5 15 -76 40 -157 25 -82 48 -157 51 -167 4 -13 -2 -19 -26 -23
-32 -7 -48 -20 -37 -31 10 -10 268 70 273 84 3 8 -4 39 -15 71 -10 31 -27 84
-37 117 -32 114 -37 125 -50 125 -7 0 -18 7 -25 15 -9 11 -17 12 -32 4 -16 -8
-22 -7 -33 8 -13 17 -14 17 -19 1z"/>
<path d="M1170 6690 c-9 -6 -10 -10 -3 -10 6 0 15 5 18 10 8 12 4 12 -15 0z"/>
<path d="M1050 6661 c-36 -10 -86 -25 -112 -32 -31 -8 -48 -19 -48 -29 0 -31
83 -525 90 -533 4 -5 41 3 81 17 41 13 93 30 117 36 26 7 42 16 42 26 0 27
-70 437 -82 479 -6 22 -11 43 -10 48 3 10 -2 9 -78 -12z"/>
<path d="M8160 6667 c0 -8 13 -55 29 -104 16 -48 36 -114 45 -145 9 -32 21
-58 27 -58 6 0 33 8 60 17 l49 18 0 95 c0 100 -7 120 -44 120 -11 0 -30 12
-42 28 l-22 27 -29 -27 c-21 -21 -32 -25 -40 -17 -6 6 -9 17 -7 24 3 6 -2 18
-11 25 -12 10 -15 10 -15 -3z"/>
<path d="M7307 6630 c-49 -15 -91 -30 -94 -33 -4 -5 114 -422 138 -484 4 -12
15 -23 22 -23 15 0 137 35 174 50 l22 9 -26 77 c-14 42 -49 156 -78 252 -28
97 -56 177 -61 178 -5 1 -49 -10 -97 -26z"/>
<path d="M7826 6635 c8 -20 -13 -105 -30 -125 -8 -8 -16 -32 -20 -52 -8 -44
-28 -58 -73 -51 -30 5 -32 3 -37 -28 -15 -101 -25 -203 -21 -207 4 -4 209 57
262 78 12 5 23 19 25 32 2 15 13 25 36 32 18 5 31 14 29 20 -2 6 -24 77 -48
158 -45 154 -47 158 -106 158 -16 0 -21 -4 -17 -15z"/>
<path d="M4925 6635 c-26 -8 -162 -48 -275 -81 -69 -20 -133 -43 -142 -52 -17
-16 -16 -24 2 -152 11 -74 25 -166 32 -205 7 -38 12 -124 11 -189 -2 -104 1
-123 18 -147 18 -25 36 -123 64 -349 11 -92 16 -110 28 -110 11 0 209 55 452
126 33 10 64 22 68 28 4 6 6 27 3 46 -5 34 -5 34 9 10 9 -17 10 -30 4 -42 -9
-16 -7 -17 16 -6 14 6 25 14 26 17 0 3 2 15 3 26 2 11 11 57 21 102 21 99 18
112 -62 214 -65 85 -80 136 -123 414 -16 110 -35 231 -40 269 -6 38 -13 73
-16 78 -5 8 -78 10 -99 3z m151 -659 c10 -8 17 -17 14 -19 -3 -3 -16 3 -29 14
-27 22 -15 26 15 5z m-345 -140 c6 -6 9 -4 9 7 0 21 38 23 46 2 4 -8 12 -15
20 -15 8 0 14 -4 14 -10 0 -17 -18 -11 -40 12 -17 18 -20 19 -20 5 0 -24 -37
-22 -50 2 -5 11 -7 28 -3 38 7 15 8 14 11 -7 2 -14 8 -29 13 -34z m174 -33
c23 -41 26 -56 22 -104 l-5 -57 50 -16 c59 -19 91 -20 120 -5 14 8 23 8 29 0
5 -6 6 -9 3 -6 -4 2 -15 0 -26 -6 -29 -16 -106 -13 -132 5 -14 8 -33 12 -46 9
-21 -6 -22 -4 -15 18 19 60 17 107 -6 149 -13 23 -28 39 -36 36 -7 -3 -10 1
-6 10 9 24 20 16 48 -33z m365 -83 c0 -5 -4 -10 -10 -10 -5 0 -10 5 -10 10 0
6 5 10 10 10 6 0 10 -4 10 -10z m-58 -63 c-7 -8 -8 -18 -4 -22 4 -5 2 -5 -5
-1 -7 4 -21 -6 -34 -24 -13 -16 -28 -30 -35 -30 -7 0 8 22 34 49 26 26 49 47
51 45 2 -2 -1 -10 -7 -17z"/>
<path d="M3849 6563 c-30 -32 -73 -80 -95 -108 -21 -27 -61 -70 -87 -95 -42
-39 -47 -48 -41 -75 3 -16 7 -31 8 -32 6 -7 189 61 252 93 l70 36 -14 81 c-8
45 -15 93 -16 107 -5 46 -6 50 -14 50 -4 0 -33 -26 -63 -57z"/>
<path d="M780 6588 c-36 -11 -114 -35 -175 -54 -314 -95 -292 -86 -259 -98 50
-19 84 -47 84 -71 0 -27 24 -39 49 -25 13 6 24 5 39 -6 20 -14 22 -13 22 0 0
10 14 18 38 22 20 4 49 13 65 21 34 17 60 5 79 -37 7 -16 19 -30 26 -30 18 0
51 -40 52 -63 0 -9 -11 -23 -25 -29 -13 -6 -27 -19 -30 -30 -4 -10 -13 -18
-21 -18 -17 0 -19 -31 -2 -48 9 -9 7 -16 -6 -31 -24 -26 -17 -40 33 -75 l42
-29 27 33 c25 29 29 31 41 16 7 -9 22 -16 32 -16 10 0 21 -4 24 -10 6 -10 -13
-15 -46 -12 -10 1 -19 -8 -23 -21 -7 -27 19 -49 54 -45 20 2 26 9 28 36 3 24
8 32 23 32 17 0 20 5 15 28 -5 21 -60 352 -92 550 -6 37 -7 37 -94 10z"/>
<path d="M0 6479 c0 -66 1 -119 3 -119 1 0 56 18 122 39 115 37 118 39 83 46
-42 8 -51 24 -42 71 6 34 6 34 -33 34 -22 0 -61 11 -86 24 l-47 23 0 -118z"/>
<path d="M2751 6580 c-30 -11 -56 -21 -58 -23 -10 -10 19 -56 58 -93 24 -22
64 -65 89 -94 51 -62 70 -83 71 -78 7 28 3 53 -22 135 -35 118 -58 173 -73
173 -6 -1 -35 -9 -65 -20z"/>
<path d="M5330 6596 c0 -3 4 -16 10 -30 9 -24 20 -82 56 -291 9 -49 19 -94 24
-98 4 -5 47 4 96 18 49 15 99 29 112 32 12 3 22 12 22 20 0 13 -2 13 -17 2
-11 -10 -14 -10 -9 -1 5 8 -1 12 -18 12 -29 0 -60 47 -50 75 6 14 1 16 -24 14
-40 -5 -64 24 -51 59 13 34 12 38 -20 52 -29 12 -41 40 -41 96 0 19 -5 24 -26
24 -14 0 -34 5 -45 10 -10 6 -19 9 -19 6z"/>
<path d="M7075 6563 c-49 -14 -91 -27 -93 -28 -1 -1 11 -46 27 -101 116 -394
123 -420 131 -418 32 7 187 58 193 63 12 12 -138 506 -154 508 -8 1 -54 -10
-104 -24z"/>
<path d="M6885 6509 c-38 -10 -82 -21 -97 -25 -16 -4 -28 -11 -28 -16 0 -5 16
-64 36 -131 19 -67 41 -144 49 -172 7 -27 26 -89 42 -136 l28 -87 101 30 102
30 -13 46 c-39 143 -132 449 -143 467 -5 10 -22 9 -77 -6z"/>
<path d="M190 6509 c0 -5 5 -7 10 -4 6 3 10 8 10 11 0 2 -4 4 -10 4 -5 0 -10
-5 -10 -11z"/>
<path d="M4410 6470 c-133 -46 -353 -103 -387 -102 -24 1 -43 -2 -43 -5 0 -43
92 -557 101 -567 5 -6 35 -2 76 11 167 53 284 83 294 77 6 -4 26 -10 44 -14
l33 -7 7 78 c4 46 2 106 -4 146 -6 37 -21 138 -32 222 -11 85 -23 159 -25 163
-6 10 -31 9 -64 -2z"/>
<path d="M6725 6464 c-159 -45 -185 -56 -185 -74 0 -26 137 -491 148 -502 11
-11 202 42 202 56 0 14 -141 498 -149 512 -3 6 -10 10 -16 8z"/>
<path d="M120 6380 c-124 -40 -130 -46 -110 -104 11 -35 12 -35 128 -61 64
-15 132 -31 151 -36 19 -4 37 -6 40 -4 2 3 -8 49 -22 103 -15 53 -28 106 -29
117 -5 30 -31 27 -158 -15z"/>
<path d="M295 6383 c11 -63 55 -190 75 -216 11 -14 60 -49 108 -78 85 -51 132
-99 132 -133 0 -23 13 -26 54 -14 24 8 36 17 34 27 -1 9 1 22 6 30 6 9 4 18
-7 26 -19 14 -23 60 -6 71 8 5 8 9 -1 14 -14 9 -3 80 12 80 6 0 21 11 33 24
12 13 28 25 36 28 11 4 10 9 -5 27 -11 11 -25 21 -33 21 -21 0 -43 25 -43 49
0 21 -33 30 -44 12 -3 -4 -24 -11 -46 -15 -34 -5 -40 -10 -40 -30 0 -16 -12
-32 -38 -50 -43 -30 -78 -33 -110 -10 -24 17 -30 59 -9 67 9 3 12 16 9 36 -3
24 -13 35 -46 51 -65 31 -78 28 -71 -17z"/>
<path d="M6455 6384 c-27 -7 -70 -19 -93 -25 -24 -7 -46 -18 -49 -24 -2 -7 25
-111 61 -232 84 -280 88 -293 95 -293 3 0 49 13 101 28 86 25 95 29 92 50 -5
35 -142 496 -150 503 -4 4 -29 1 -57 -7z m54 -475 c-8 -5 -24 -9 -36 -9 -34 0
-30 36 5 48 22 8 29 6 36 -10 7 -14 6 -22 -5 -29z"/>
<path d="M1955 6329 c-88 -27 -196 -62 -240 -76 -44 -14 -98 -28 -121 -32
l-40 -6 13 -75 c7 -41 24 -142 38 -225 43 -254 43 -255 70 -255 21 0 469 135
537 161 31 13 33 -19 -23 314 -21 127 -39 233 -39 238 0 13 -35 6 -195 -44z"/>
<path d="M3860 6315 c-52 -24 -123 -52 -158 -61 -56 -15 -63 -20 -57 -38 3
-12 20 -88 36 -171 35 -173 85 -345 101 -345 12 0 270 78 275 84 2 1 -14 99
-36 217 -22 118 -45 247 -51 287 -6 39 -13 72 -13 71 -1 0 -45 -20 -97 -44z"/>
<path d="M8292 6349 c-37 -11 -38 -21 -9 -92 l13 -30 37 50 c57 78 47 97 -41
72z"/>
<path d="M6223 6318 c-18 -6 -33 -14 -33 -17 0 -3 9 -35 19 -71 11 -36 38
-128 60 -205 55 -187 75 -243 84 -245 4 -1 26 1 48 5 40 7 41 8 35 41 -6 28
-106 373 -137 472 -11 34 -22 37 -76 20z"/>
<path d="M8125 6296 c-55 -18 -189 -59 -297 -91 -246 -73 -237 -63 -185 -233
20 -64 50 -163 67 -220 29 -96 33 -103 53 -96 95 30 73 8 348 346 l169 206
-18 58 c-9 32 -22 59 -27 60 -6 2 -55 -12 -110 -30z"/>
<path d="M431 6301 c-13 -10 -21 -23 -17 -29 7 -12 65 -27 72 -19 5 4 -23 67
-29 67 -1 0 -13 -9 -26 -19z"/>
<path d="M490 6304 c0 -8 5 -12 10 -9 6 4 8 11 5 16 -9 14 -15 11 -15 -7z"/>
<path d="M3580 6284 c-8 -8 -33 -30 -55 -49 l-40 -34 63 20 c58 19 77 39 52
54 -6 4 -8 11 -5 16 9 14 1 11 -15 -7z"/>
<path d="M6120 6289 c-25 -4 -89 -11 -143 -15 -144 -10 -251 -35 -255 -60 -2
-10 -6 -26 -9 -34 -10 -24 -11 -94 -1 -106 4 -6 18 -9 31 -7 17 3 26 -2 34
-20 7 -14 25 -33 42 -43 23 -14 31 -26 31 -46 0 -36 14 -35 57 2 18 17 38 30
42 30 15 0 22 -32 10 -46 -9 -11 -8 -19 5 -32 15 -17 14 -20 -7 -40 -12 -11
-34 -24 -49 -27 -31 -8 -32 -9 -18 -35 10 -18 13 -18 51 -5 56 20 121 19 221
-4 46 -11 100 -22 121 -26 l39 -6 -7 33 c-4 18 -23 85 -42 148 -19 63 -38 129
-43 145 -26 92 -59 197 -62 199 -1 1 -23 -1 -48 -5z"/>
<path d="M2920 6285 c0 -5 5 -17 10 -25 5 -8 10 -10 10 -5 0 6 -5 17 -10 25
-5 8 -10 11 -10 5z"/>
<path d="M8300 6200 c-36 -46 -81 -102 -101 -124 -19 -23 -93 -113 -164 -201
-71 -88 -135 -166 -143 -174 -7 -8 -39 -46 -70 -85 -31 -39 -60 -73 -63 -76
-34 -27 -178 -228 -201 -279 -17 -36 -43 -94 -59 -129 -16 -35 -29 -65 -29
-68 0 -2 -20 -46 -45 -97 -48 -99 -107 -166 -270 -304 -44 -37 -122 -107 -174
-155 -98 -91 -175 -133 -265 -144 -165 -20 -300 -55 -376 -98 -22 -12 -56 -41
-76 -64 l-35 -41 22 -76 c17 -59 26 -75 38 -72 9 3 122 36 251 74 282 84 290
86 290 74 0 -5 -15 -13 -32 -16 -60 -13 -503 -146 -510 -153 -4 -4 -2 -24 4
-45 17 -56 -1 -81 -86 -115 -39 -16 -84 -33 -100 -36 -23 -6 -27 -9 -15 -17
12 -8 12 -10 -1 -19 -12 -8 -10 -14 14 -39 20 -21 28 -39 28 -65 0 -27 4 -36
17 -36 12 0 13 2 3 8 -15 10 -5 42 14 42 19 0 84 -32 84 -42 0 -4 7 -8 14 -8
12 0 13 6 5 29 -7 21 -7 36 0 50 15 26 14 28 -9 34 -28 7 -26 16 20 78 45 60
101 91 159 88 38 -3 81 15 94 37 4 8 15 14 22 14 8 0 15 5 15 12 0 6 3 9 6 5
4 -3 13 0 21 8 8 8 25 15 38 15 13 0 27 5 30 10 3 6 14 10 24 10 9 0 23 6 29
13 7 6 16 12 20 13 4 0 14 3 22 7 8 3 31 10 51 17 20 6 45 20 54 30 10 11 23
20 29 20 6 0 31 35 56 77 72 122 83 140 113 175 15 18 35 45 45 59 43 65 61
89 129 170 40 47 73 93 73 101 0 8 8 24 18 36 9 11 28 34 42 52 41 51 59 66
113 95 29 16 54 31 57 35 3 3 33 23 68 44 34 21 69 50 77 66 20 39 66 70 93
63 12 -3 22 -11 22 -19 0 -7 6 -11 13 -8 8 3 20 -2 27 -11 20 -24 32 -17 14
10 -20 30 -12 55 27 84 24 18 28 25 18 37 -9 11 -7 15 12 22 12 5 18 11 12 15
-17 11 -2 66 26 90 14 12 32 34 38 50 10 22 19 27 47 27 41 0 51 -20 42 -78
-6 -36 -6 -36 8 -12 14 25 16 76 4 96 -10 15 9 78 44 149 29 59 115 158 128
150 4 -3 16 15 26 38 10 23 34 58 52 78 l32 37 -2 223 -3 223 -65 -84z m-462
-1091 c-10 -29 -19 -33 -50 -21 -16 7 -16 10 7 34 33 36 58 28 43 -13z"/>
<path d="M3527 6197 c-51 -18 -103 -44 -125 -62 l-36 -32 33 -204 c48 -295 50
-302 69 -294 10 3 73 23 142 42 69 20 129 40 134 44 6 6 -2 51 -22 116 -17 60
-45 176 -62 258 -18 83 -35 153 -38 156 -4 4 -47 -7 -95 -24z"/>
<path d="M0 6120 l0 -99 30 17 c16 9 30 21 30 25 0 13 -52 157 -56 157 -2 0
-4 -45 -4 -100z"/>
<path d="M35 6198 c3 -13 16 -49 27 -81 22 -63 16 -62 81 -10 19 15 42 23 68
23 46 0 78 -28 108 -95 12 -27 32 -49 56 -64 28 -16 36 -18 32 -6 -4 8 -18 53
-32 100 -15 47 -27 85 -29 85 -1 0 -71 16 -155 35 -83 19 -154 35 -157 35 -3
0 -3 -10 1 -22z"/>
<path d="M1395 6169 c-66 -22 -123 -43 -128 -48 -13 -13 3 -60 19 -54 8 3 14
-1 14 -10 0 -9 3 -22 6 -31 4 -11 1 -16 -10 -16 -9 0 -16 -1 -16 -2 0 -2 13
-78 29 -169 23 -131 35 -176 58 -212 15 -26 32 -47 38 -47 26 0 225 74 225 84
0 6 -9 63 -21 126 -11 63 -23 134 -26 158 -11 90 -48 256 -58 258 -5 2 -64
-15 -130 -37z"/>
<path d="M5640 6178 c0 -21 5 -38 10 -38 13 0 13 40 0 60 -7 11 -10 5 -10 -22z"/>
<path d="M5575 6193 c-11 -2 -51 -13 -88 -24 -54 -16 -67 -24 -63 -37 3 -9 12
-57 21 -107 9 -49 25 -128 35 -175 10 -47 22 -106 25 -131 11 -72 13 -74 88
-44 43 17 67 33 67 43 0 8 7 23 16 33 15 16 15 34 4 176 -12 158 -20 195 -39
208 -6 3 -11 19 -11 36 0 30 -8 33 -55 22z"/>
<path d="M3305 6143 c-30 -7 -41 -21 -28 -34 9 -9 18 -8 37 5 15 9 26 21 26
26 0 10 -3 11 -35 3z"/>
<path d="M5360 6130 c-14 -4 -69 -20 -122 -36 -86 -24 -98 -30 -98 -49 0 -41
23 -90 75 -160 28 -38 57 -80 63 -92 16 -29 15 -95 -3 -168 -17 -71 -18 -85
-5 -85 8 0 221 88 228 94 3 3 -39 226 -69 366 -11 52 -22 105 -25 118 -5 24
-7 24 -44 12z"/>
<path d="M373 6123 c3 -5 17 -47 32 -96 26 -84 29 -88 80 -122 57 -38 74 -38
100 1 26 40 -10 113 -69 141 -40 18 -64 32 -103 61 -31 22 -48 28 -40 15z"/>
<path d="M2985 6108 c10 -33 23 -44 36 -31 13 13 5 29 -23 44 -18 10 -19 8
-13 -13z"/>
<path d="M3230 6119 c-255 -77 -241 -68 -191 -126 21 -25 33 -28 59 -14 26 15
176 103 181 107 1 1 -3 11 -10 22 -11 14 -20 17 -39 11z"/>
<path d="M7490 6105 c-19 -8 -54 -19 -77 -25 -24 -6 -43 -16 -43 -22 0 -20 74
-258 80 -258 4 0 14 26 24 58 10 31 40 99 68 149 27 51 46 97 43 103 -9 14
-53 12 -95 -5z"/>
<path d="M175 6100 c-11 -5 -35 -22 -53 -37 l-33 -28 20 -50 c11 -28 54 -147
95 -265 41 -118 86 -247 101 -286 l26 -71 102 34 c56 19 112 35 125 35 12 0
22 6 22 12 0 6 -31 102 -69 211 -38 110 -73 213 -77 229 -5 21 -23 39 -65 65
-44 27 -62 45 -74 76 -8 22 -22 48 -29 57 -16 22 -64 31 -91 18z"/>
<path d="M1180 6100 c-14 -5 -64 -20 -112 -35 -49 -15 -88 -29 -88 -31 0 -2
14 -40 30 -86 34 -92 36 -121 15 -175 -12 -33 -35 -176 -35 -224 0 -10 19 -25
46 -39 46 -21 48 -21 118 -4 39 9 100 25 135 36 72 22 70 14 27 135 -19 54
-86 387 -86 427 0 8 -19 6 -50 -4z"/>
<path d="M3315 6063 c-16 -14 -46 -40 -65 -57 -19 -18 -67 -51 -106 -74 -39
-22 -77 -48 -84 -57 -16 -20 -23 -68 -8 -59 6 4 8 -1 4 -14 -6 -18 9 -85 50
-230 9 -29 22 -56 29 -58 13 -5 122 25 240 65 50 17 50 18 47 57 -3 46 -59
388 -70 426 l-7 26 -30 -25z"/>
<path d="M7247 6027 c-75 -25 -97 -36 -97 -50 0 -18 125 -431 136 -448 12 -21
26 -3 88 114 l65 123 -44 143 c-24 79 -46 145 -47 146 -2 2 -47 -11 -101 -28z"/>
<path d="M7555 5999 c-21 -35 -50 -102 -66 -148 l-29 -83 27 -89 c15 -49 31
-89 37 -89 26 0 196 54 196 62 0 13 -111 379 -120 397 -5 10 -19 -6 -45 -50z"/>
<path d="M5705 5985 c3 -33 11 -65 16 -72 6 -6 6 -13 2 -16 -12 -7 -3 -167 8
-167 6 0 7 9 3 22 -6 21 -5 21 10 9 14 -12 25 -11 76 4 47 14 57 21 49 31 -20
24 -6 57 28 68 36 12 66 36 45 36 -7 0 -12 9 -12 20 0 20 0 20 -29 -1 -16 -11
-39 -19 -52 -17 -20 2 -24 8 -22 36 1 27 -5 37 -33 55 -19 12 -36 29 -39 37
-3 8 -17 15 -31 15 -26 0 -26 0 -19 -60z"/>
<path d="M2910 6023 c-25 -8 -62 -19 -83 -25 -36 -11 -37 -12 -31 -47 4 -20
11 -38 15 -39 5 -2 7 -8 4 -13 -12 -18 81 23 107 48 25 23 32 24 30 2 -1 -3 6
-6 14 -6 9 0 11 4 5 10 -5 5 -7 16 -4 25 5 11 2 13 -8 7 -11 -6 -12 -5 -1 6
13 14 17 50 5 48 -5 -1 -28 -8 -53 -16z"/>
<path d="M35 6016 c-19 -13 -19 -16 -3 -66 19 -58 16 -76 -13 -83 -18 -5 -19
-16 -19 -224 l0 -218 123 -37 c83 -26 132 -36 154 -32 l31 6 -63 187 c-35 102
-84 245 -110 316 -26 72 -49 138 -52 148 -6 21 -23 22 -48 3z"/>
<path d="M725 5975 c-3 -8 -7 -21 -9 -29 -3 -8 -23 -20 -45 -27 -23 -7 -41
-15 -41 -18 1 -23 71 -126 137 -200 l78 -88 29 39 c26 36 28 44 22 97 l-7 57
33 16 c32 15 33 18 30 63 -3 34 -7 44 -15 36 -26 -26 -127 3 -127 37 0 7 -4
10 -10 7 -5 -3 -20 1 -32 9 -28 20 -37 20 -43 1z"/>
<path d="M3023 5975 c0 -8 4 -15 9 -15 4 0 8 4 8 9 0 6 -4 12 -8 15 -5 3 -9
-1 -9 -9z"/>
<path d="M2640 5950 c-181 -50 -334 -101 -357 -119 -29 -24 -21 -67 15 -76 21
-5 23 -8 11 -17 -17 -12 -27 -15 141 40 69 23 171 55 228 72 97 29 102 32 102
58 0 40 -11 72 -24 71 -6 0 -58 -14 -116 -29z"/>
<path d="M7035 5959 c-27 -10 -61 -21 -74 -24 -13 -2 -29 -9 -34 -14 -7 -7 11
-82 58 -233 38 -123 71 -229 74 -235 5 -9 32 -4 104 21 54 19 100 36 103 38 2
3 -23 92 -57 199 -34 107 -66 211 -72 232 -13 44 -27 46 -102 16z"/>
<path d="M973 5896 l7 -74 -31 -14 c-28 -12 -30 -16 -28 -69 2 -46 -3 -62 -24
-95 -15 -21 -27 -43 -27 -49 0 -12 88 -50 96 -42 3 3 12 50 19 105 7 54 18
110 25 123 18 33 13 103 -10 150 -11 21 -23 39 -27 39 -3 0 -3 -33 0 -74z"/>
<path d="M1 5928 c-1 -21 4 -38 9 -38 12 0 12 27 0 55 -7 16 -9 13 -9 -17z"/>
<path d="M6850 5900 c-8 -5 -45 -16 -82 -26 -47 -11 -68 -21 -68 -31 0 -32
128 -444 142 -459 3 -3 30 2 59 10 30 8 73 20 97 26 25 6 42 17 42 25 0 8 -13
56 -29 107 -16 51 -48 153 -71 226 -42 135 -51 147 -90 122z"/>
<path d="M450 5897 c0 -20 189 -569 200 -580 4 -5 41 3 81 17 110 38 130 44
182 57 55 14 63 39 17 56 -20 8 -30 18 -30 32 0 14 -6 21 -18 21 -24 0 -54 33
-52 57 4 35 -1 44 -73 125 -80 91 -103 123 -130 182 l-18 40 -15 -23 c-28 -39
-54 -42 -101 -9 -24 16 -43 27 -43 25z"/>
<path d="M2916 5873 c-33 -7 -65 -18 -71 -23 -7 -5 -14 -8 -17 -5 -10 11 -5
-37 23 -208 16 -98 29 -183 29 -188 0 -15 30 -11 122 18 49 15 88 32 88 38 0
16 -58 224 -70 250 -9 20 -19 72 -23 111 -2 24 -4 25 -81 7z"/>
<path d="M4320 5839 c-58 -17 -109 -35 -114 -39 -8 -8 33 -173 65 -265 6 -16
26 -84 45 -149 18 -66 35 -121 37 -122 2 -2 65 13 140 34 120 32 137 40 137
58 0 11 -12 104 -26 205 -34 246 -52 281 -155 303 -13 3 -71 -8 -129 -25z"/>
<path d="M6557 5812 c-85 -25 -88 -27 -82 -52 15 -66 129 -436 136 -444 8 -8
133 23 185 46 19 9 20 13 8 56 -13 52 -78 265 -99 327 -7 22 -16 52 -19 68 -8
33 -15 33 -129 -1z"/>
<path d="M2600 5784 c-63 -19 -158 -50 -210 -68 l-95 -33 2 -54 c3 -57 27
-221 45 -302 8 -37 14 -47 27 -43 118 32 221 69 221 79 0 7 -16 95 -35 196
-40 209 -37 191 -27 191 5 0 24 -84 43 -187 18 -103 35 -181 37 -172 2 9 19
21 38 27 32 10 36 9 44 -13 l9 -23 83 26 c46 14 84 26 84 26 4 2 -45 276 -58
326 -14 54 -15 55 -54 57 -22 2 -87 -12 -154 -33z"/>
<path d="M2170 5788 c-56 -17 -462 -142 -497 -153 -14 -5 -17 -33 -7 -59 7
-19 40 -14 136 20 37 13 98 26 135 30 38 4 123 24 191 46 l122 39 0 37 c0 59
-7 62 -80 40z"/>
<path d="M5975 5793 c-59 -13 -74 -25 -88 -72 -10 -37 -20 -49 -47 -63 -34
-16 -34 -17 -9 -18 15 0 37 -9 50 -19 23 -19 23 -20 6 -39 -28 -30 -18 -63 21
-77 40 -13 59 -40 43 -59 -6 -7 -8 -15 -5 -19 3 -3 1 -14 -5 -25 -9 -17 -8
-19 8 -15 12 3 20 -2 23 -14 3 -10 9 -25 12 -33 5 -12 -9 -19 -60 -34 -48 -14
-71 -27 -87 -47 -11 -16 -30 -29 -42 -29 -12 0 -34 -13 -50 -30 -16 -16 -34
-30 -41 -30 -8 0 -16 -20 -20 -47 -5 -39 -15 -56 -50 -89 -24 -23 -44 -46 -44
-51 0 -5 -11 -15 -25 -21 -14 -6 -25 -18 -25 -26 0 -8 -9 -18 -20 -21 -13 -4
-20 -15 -20 -31 0 -28 10 -29 71 -10 24 8 118 36 209 62 146 43 170 53 208 88
54 50 101 114 148 201 20 39 55 102 77 140 64 111 67 119 67 146 0 46 32 183
46 199 7 9 10 20 6 26 -8 12 -265 65 -307 63 -16 -1 -39 -3 -50 -6z"/>
<path d="M4113 5778 c-27 -9 -31 -15 -28 -37 3 -14 21 -138 41 -276 20 -137
38 -252 40 -254 6 -7 164 41 164 50 0 15 -60 230 -69 248 -4 9 -13 39 -20 66
-7 28 -23 87 -37 133 -26 88 -29 90 -91 70z"/>
<path d="M6425 5768 c-30 -16 -55 -45 -55 -64 0 -21 119 -417 129 -426 9 -10
82 13 87 27 4 10 -93 342 -128 437 -11 32 -15 35 -33 26z"/>
<path d="M4000 5743 c-169 -47 -220 -65 -220 -77 0 -45 24 -124 46 -153 19
-25 27 -52 34 -111 5 -42 16 -99 24 -126 9 -27 16 -59 16 -71 0 -13 8 -33 18
-45 l18 -22 104 31 c57 17 105 32 106 34 2 2 -5 52 -15 113 -10 60 -29 184
-42 277 -12 92 -25 167 -28 166 -3 0 -31 -7 -61 -16z"/>
<path d="M5813 5737 c-35 -13 -53 -25 -53 -36 0 -9 -5 -22 -10 -27 -13 -13 9
-77 45 -132 36 -55 49 -117 34 -156 -7 -17 -36 -57 -66 -88 -29 -31 -53 -61
-53 -66 0 -6 -3 -19 -7 -29 -4 -12 6 -7 28 15 19 17 42 32 51 32 9 0 26 12 37
26 13 16 42 32 76 42 54 16 74 37 37 37 -34 1 -45 15 -27 35 11 12 14 26 10
39 -4 12 -2 21 4 21 28 0 7 28 -29 39 -37 11 -40 14 -40 49 0 21 5 43 12 50
16 16 6 24 -39 31 -51 8 -53 39 -4 56 20 7 38 21 43 35 16 42 7 47 -49 27z"/>
<path d="M2281 5734 c0 -11 3 -14 6 -6 3 7 2 16 -1 19 -3 4 -6 -2 -5 -13z"/>
<path d="M5676 5723 c-6 -14 -5 -15 5 -6 7 7 10 15 7 18 -3 3 -9 -2 -12 -12z"/>
<path d="M7389 5638 c-31 -57 -55 -104 -54 -106 7 -8 150 47 153 59 1 8 -8 44
-20 82 l-23 67 -56 -102z"/>
<path d="M5730 5700 c0 -5 5 -10 11 -10 5 0 7 5 4 10 -3 6 -8 10 -11 10 -2 0
-4 -4 -4 -10z"/>
<path d="M5686 5691 c-4 -6 -4 -16 0 -22 4 -8 1 -8 -12 -1 -25 13 -144 -35
-144 -58 0 -9 25 -90 55 -180 40 -118 55 -179 55 -218 0 -46 2 -53 14 -43 8 7
18 26 21 42 4 17 32 60 62 96 47 54 57 73 60 112 4 40 -1 58 -45 143 -28 53
-48 99 -45 101 3 3 1 13 -5 23 -6 11 -11 13 -16 5z"/>
<path d="M6332 5688 c-5 -7 -18 -62 -27 -123 -10 -60 -21 -114 -25 -120 -22
-27 -151 -267 -147 -272 2 -1 46 10 98 26 52 16 127 39 167 51 49 14 72 26 72
36 0 16 -116 404 -123 411 -2 2 -9 -2 -15 -9z"/>
<path d="M3670 5649 c-201 -62 -205 -63 -208 -86 -2 -12 13 -114 33 -225 21
-112 39 -224 42 -251 3 -26 9 -50 14 -53 7 -4 347 90 356 99 2 2 -3 17 -12 33
-8 16 -15 36 -15 45 0 9 -9 51 -20 94 -11 43 -20 97 -20 120 0 32 -7 52 -30
80 -16 21 -30 44 -30 51 0 35 -23 114 -33 113 -7 0 -41 -9 -77 -20z"/>
<path d="M7783 5648 c-32 -11 -41 -30 -25 -55 5 -8 18 2 40 28 35 42 35 43
-15 27z"/>
<path d="M2160 5638 c-30 -12 -137 -45 -205 -62 -27 -7 -74 -23 -103 -35 -34
-13 -75 -21 -113 -21 l-61 0 6 -27 c3 -16 8 -45 12 -65 3 -21 11 -38 16 -38
12 0 99 -73 198 -167 l76 -73 164 51 c90 27 168 53 173 56 4 3 6 21 3 42 -26
179 -48 306 -56 326 -8 21 -16 25 -47 24 -21 0 -49 -5 -63 -11z"/>
<path d="M1590 5615 c-19 -7 -44 -14 -55 -15 -11 0 -46 -11 -79 -24 -55 -21
-57 -23 -42 -39 13 -13 22 -14 36 -7 10 6 38 10 62 10 47 1 125 14 134 23 8 7
-6 67 -14 66 -4 0 -23 -7 -42 -14z m-130 -71 c0 -2 -9 -4 -21 -4 -11 0 -18 4
-14 10 5 8 35 3 35 -6z"/>
<path d="M7621 5599 c-52 -16 -96 -31 -98 -33 -2 -2 10 -50 27 -106 26 -83 35
-99 44 -89 12 13 129 159 148 185 8 12 -9 75 -20 73 -4 0 -49 -14 -101 -30z"/>
<path d="M5405 5571 c-49 -21 -110 -48 -135 -60 l-45 -21 57 6 c48 6 59 4 64
-10 3 -9 13 -16 22 -16 12 0 13 -3 4 -12 -9 -9 -17 -7 -33 11 -17 18 -28 21
-48 16 -14 -4 -51 -8 -81 -10 -44 -2 -253 -57 -269 -71 -4 -3 39 -163 71 -262
25 -80 46 -94 123 -88 43 3 61 9 68 22 25 46 89 112 124 127 21 9 83 30 138
46 153 46 146 30 89 209 -27 84 -51 152 -54 152 -3 -1 -45 -18 -95 -39z m75
-41 c0 -20 -36 -80 -47 -80 -17 0 -16 31 2 56 8 12 11 24 8 28 -3 3 3 6 15 6
12 0 22 -4 22 -10z"/>
<path d="M855 5560 c-11 -18 15 -40 46 -40 24 0 29 -4 29 -25 0 -15 7 -28 18
-32 9 -3 25 -13 36 -22 17 -15 18 -15 13 4 -3 11 -9 32 -12 47 -5 20 -20 32
-58 50 -29 12 -55 24 -59 26 -3 2 -9 -2 -13 -8z"/>
<path d="M3268 5528 c-99 -32 -128 -45 -128 -59 0 -31 40 -148 99 -287 32 -75
64 -155 72 -177 17 -46 14 -46 137 -8 l83 25 -6 41 c-4 23 -24 143 -46 266
-21 123 -39 228 -39 232 0 17 -45 8 -172 -33z"/>
<path d="M7408 5533 c-84 -25 -88 -27 -99 -62 -23 -71 -63 -136 -110 -181 -26
-25 -51 -57 -54 -72 -5 -17 7 -74 36 -172 l43 -145 56 30 c30 17 82 59 116 94
50 52 70 85 117 189 l57 125 -31 103 c-17 57 -33 106 -37 109 -4 4 -46 -5 -94
-18z"/>
<path d="M1290 5526 c-36 -11 -70 -24 -75 -28 -6 -3 -37 -12 -70 -19 -53 -11
-64 -10 -94 5 -37 20 -46 17 -36 -13 8 -28 56 -28 150 -1 39 11 98 25 133 31
50 9 62 15 62 30 0 10 -1 19 -2 18 -2 -1 -32 -11 -68 -23z"/>
<path d="M1590 5509 c-25 -4 -64 -13 -87 -20 l-42 -11 32 -34 c22 -25 50 -40
98 -55 38 -11 72 -18 78 -15 5 3 12 0 15 -6 3 -7 4 -4 2 7 -23 119 -30 145
-40 144 -6 -1 -31 -5 -56 -10z"/>
<path d="M7165 5457 c-49 -18 -90 -36 -90 -42 0 -5 11 -48 24 -95 l24 -86 55
56 c76 77 124 186 87 196 -5 1 -50 -12 -100 -29z"/>
<path d="M1416 5471 c-4 -6 8 -18 26 -27 21 -10 28 -11 18 -3 -8 8 -20 20 -27
27 -7 8 -13 10 -17 3z"/>
<path d="M2990 5444 c-36 -13 -73 -24 -82 -24 -10 0 -18 -6 -18 -12 0 -24 89
-540 94 -545 2 -2 68 15 145 38 123 37 141 45 141 63 0 41 -48 195 -88 282
-23 49 -51 119 -62 157 -24 78 -27 79 -130 41z"/>
<path d="M1230 5446 c-25 -8 -56 -17 -70 -21 -78 -22 -120 -38 -120 -47 0 -18
51 -163 63 -177 40 -48 319 -201 368 -201 9 0 73 18 143 40 97 31 126 45 126
58 0 20 -39 224 -44 229 -2 2 -36 13 -77 24 -41 11 -114 39 -164 61 -100 46
-157 55 -225 34z"/>
<path d="M1028 5433 c6 -2 18 -2 25 0 6 3 1 5 -13 5 -14 0 -19 -2 -12 -5z"/>
<path d="M500 5398 c-14 -5 -54 -18 -89 -29 -35 -10 -66 -20 -68 -23 -3 -3 9
-48 27 -101 29 -87 34 -96 54 -91 11 2 38 8 58 11 74 14 145 154 111 219 -15
28 -47 33 -93 14z"/>
<path d="M2825 5405 c-5 -2 -55 -18 -111 -35 l-101 -32 9 -47 c5 -25 27 -151
48 -280 22 -129 42 -236 44 -239 5 -5 214 64 236 78 11 7 5 60 -29 267 -23
142 -45 266 -47 276 -5 16 -24 21 -49 12z"/>
<path d="M6928 5383 c-53 -17 -78 -30 -78 -40 0 -14 118 -415 124 -421 6 -6
136 262 136 281 0 12 -12 63 -26 114 -31 109 -29 108 -156 66z"/>
<path d="M12 5388 c3 -7 29 -84 57 -170 29 -87 56 -158 60 -158 14 0 236 72
243 79 4 4 -7 50 -24 104 l-32 97 -51 0 c-31 0 -87 12 -140 30 -97 33 -119 36
-113 18z"/>
<path d="M4783 5363 c-103 -30 -123 -39 -123 -55 0 -20 93 -363 112 -410 6
-16 18 -28 27 -28 9 0 33 -14 53 -30 20 -17 56 -37 79 -46 24 -8 47 -20 51
-27 5 -7 6 -1 3 14 -5 22 -1 31 23 48 17 11 43 21 59 21 23 0 31 7 44 39 15
34 22 40 68 51 57 13 65 31 32 71 -17 21 -27 24 -87 22 -58 -2 -72 1 -91 19
-13 12 -23 27 -23 33 0 7 -15 59 -34 116 -18 57 -39 125 -46 152 -7 26 -15 47
-19 46 -3 0 -61 -17 -128 -36z"/>
<path d="M995 5370 c-3 -5 1 -10 9 -10 9 0 16 5 16 10 0 6 -4 10 -9 10 -6 0
-13 -4 -16 -10z"/>
<path d="M1710 5366 c0 -2 9 -6 20 -9 11 -3 18 -1 14 4 -5 9 -34 13 -34 5z"/>
<path d="M1 5193 c-1 -192 -3 -187 64 -159 19 8 35 21 35 28 0 8 -22 79 -49
158 l-49 145 -1 -172z"/>
<path d="M816 5314 c-121 -41 -139 -55 -130 -103 7 -40 31 -118 71 -230 26
-72 27 -73 57 -68 55 9 236 68 236 77 0 5 14 32 30 60 17 28 30 58 30 67 0 15
-15 15 -76 -2 -19 -6 -20 -3 -16 52 l4 58 -35 13 c-38 14 -63 57 -54 92 7 25
3 25 -117 -16z"/>
<path d="M960 5335 c-19 -23 2 -62 45 -79 36 -15 39 -25 35 -87 -1 -23 2 -25
29 -21 17 2 30 7 28 11 -2 3 -8 17 -14 31 -6 14 -21 55 -33 93 -20 62 -24 67
-50 67 -15 0 -33 -7 -40 -15z"/>
<path d="M6722 5321 c-51 -16 -95 -31 -98 -34 -3 -3 18 -79 46 -169 28 -89 65
-208 81 -263 17 -55 32 -101 33 -102 1 -2 30 7 64 18 54 18 66 27 88 65 17 29
25 54 22 72 -8 45 -131 442 -137 441 -3 0 -48 -13 -99 -28z m90 -311 c4 -45
-7 -55 -15 -13 -4 24 0 53 8 53 2 0 5 -18 7 -40z"/>
<path d="M8020 5330 c0 -12 -10 -25 -24 -32 -25 -11 -43 -38 -27 -38 5 0 17
-3 27 -7 14 -5 16 -3 11 11 -4 10 -1 19 8 22 8 4 15 14 15 23 0 9 5 22 12 29
9 9 8 12 -5 12 -10 0 -17 -8 -17 -20z"/>
<path d="M610 5318 c0 -9 5 -20 10 -23 13 -8 13 5 0 25 -8 13 -10 13 -10 -2z"/>
<path d="M2468 5293 c-128 -41 -121 -19 -83 -248 52 -310 54 -329 42 -344 -10
-12 -8 -13 13 -7 29 8 193 50 231 60 l27 6 -14 72 c-8 40 -21 118 -29 173 -28
189 -57 325 -69 324 -6 0 -59 -16 -118 -36z"/>
<path d="M1720 5312 c0 -4 9 -54 20 -112 11 -58 20 -106 20 -107 0 -9 47 1
119 25 l83 28 -63 54 c-104 91 -143 120 -161 120 -10 0 -18 -3 -18 -8z"/>
<path d="M4490 5282 c-69 -19 -127 -37 -129 -38 -2 -2 10 -54 28 -116 17 -62
44 -165 60 -228 17 -63 39 -146 49 -185 18 -63 18 -73 5 -113 -9 -23 -13 -55
-10 -70 13 -69 36 -143 56 -185 12 -25 24 -70 25 -99 2 -29 7 -71 11 -93 l7
-40 98 0 c82 0 101 3 119 19 12 11 21 27 21 38 0 10 6 18 14 18 24 0 24 24 -1
54 -24 29 -24 33 -7 127 5 25 78 109 95 109 5 0 16 11 24 24 15 22 15 28 1 61
-21 50 -20 66 6 121 l23 46 -28 24 c-16 13 -36 24 -46 24 -10 0 -38 16 -62 35
-24 19 -53 35 -65 35 -18 0 -25 15 -52 118 -57 208 -93 335 -98 344 -6 10 4
12 -144 -30z"/>
<path d="M5455 5225 l-150 -52 -47 -62 -48 -62 22 -29 c13 -19 31 -30 46 -30
13 0 38 -11 56 -25 18 -14 38 -25 45 -25 19 0 91 54 141 104 24 25 52 46 62
46 11 0 23 11 28 26 12 30 13 134 2 150 -5 7 -56 -6 -157 -41z"/>
<path d="M6543 5268 c-22 -7 -33 -17 -33 -30 0 -10 32 -116 71 -236 39 -119
75 -232 81 -250 11 -36 18 -37 82 -12 22 8 24 13 17 32 -6 13 -25 75 -45 138
-95 314 -113 365 -127 367 -8 0 -29 -4 -46 -9z"/>
<path d="M8055 5250 c-3 -5 1 -10 9 -10 9 0 16 5 16 10 0 6 -4 10 -9 10 -6 0
-13 -4 -16 -10z"/>
<path d="M551 5130 c-52 -69 -91 -131 -91 -143 1 -33 46 -161 58 -165 6 -2 63
14 127 34 113 36 117 38 112 63 -5 24 -106 322 -112 329 -2 2 -44 -51 -94
-118z"/>
<path d="M6370 5226 c-257 -79 -241 -71 -320 -159 -53 -59 -71 -86 -67 -101 9
-41 125 -408 131 -413 3 -4 30 1 58 9 29 9 105 32 168 51 63 20 156 47 205 62
50 15 94 31 99 36 10 9 11 7 -92 324 -57 175 -71 210 -87 212 -11 1 -54 -9
-95 -21z"/>
<path d="M4325 5234 c-5 -1 -43 -12 -83 -24 l-74 -21 7 -42 c3 -23 10 -69 15
-102 5 -33 21 -139 36 -235 14 -96 29 -178 33 -182 5 -6 219 47 229 56 1 2
-12 50 -29 107 -17 57 -35 127 -41 154 -5 28 -21 88 -35 135 -14 47 -29 100
-33 118 -9 38 -11 40 -25 36z"/>
<path d="M2185 5194 c-60 -19 -128 -41 -149 -47 l-40 -13 48 -38 c56 -46 72
-74 81 -141 9 -58 43 -145 57 -145 6 0 4 8 -3 18 -13 15 -12 16 4 3 9 -7 17
-20 17 -27 0 -15 12 -17 74 -14 33 1 45 -4 82 -41 62 -61 71 -47 50 73 -15 85
-66 397 -66 405 0 10 -59 -2 -155 -33z"/>
<path d="M7935 5179 c-4 -11 -4 -23 0 -27 8 -9 75 -9 75 0 0 3 3 15 6 25 5 17
5 17 -6 0 -11 -17 -13 -16 -40 3 l-29 20 -6 -21z"/>
<path d="M4035 5150 c-104 -32 -100 -23 -59 -158 23 -76 28 -85 59 -98 28 -11
35 -21 40 -51 4 -21 12 -56 20 -79 14 -44 5 -74 -22 -74 -9 0 -13 -6 -10 -14
3 -8 11 -32 18 -55 7 -23 16 -41 21 -41 5 0 38 7 74 16 58 15 65 19 60 38 -5
21 -19 112 -56 361 -26 177 -28 185 -43 184 -6 -1 -52 -14 -102 -29z"/>
<path d="M7052 5031 c-65 -128 -70 -143 -61 -171 6 -16 14 -32 18 -35 10 -5
115 27 164 51 21 10 36 23 33 30 -3 7 -18 59 -35 116 -49 170 -37 169 -119 9z"/>
<path d="M1140 5139 c14 -13 32 -34 41 -46 8 -11 57 -44 109 -72 74 -41 100
-50 123 -45 16 3 26 8 23 11 -3 3 -43 22 -88 42 -46 21 -110 55 -143 77 -81
55 -94 62 -65 33z"/>
<path d="M424 5116 c-3 -7 1 -28 8 -45 l13 -32 27 46 28 45 -36 0 c-20 0 -37
-6 -40 -14z"/>
<path d="M340 5108 c-14 -5 -61 -21 -105 -34 -112 -34 -106 -30 -96 -56 14
-39 66 -35 136 10 59 38 118 93 99 91 -5 0 -20 -5 -34 -11z"/>
<path d="M1105 5062 c-16 -31 -31 -61 -33 -66 -3 -4 4 -6 14 -3 11 3 46 13 78
23 54 15 58 17 38 28 -12 6 -32 26 -45 43 l-23 32 -29 -57z"/>
<path d="M1852 5092 l-84 -26 6 -40 c4 -23 11 -57 16 -77 l10 -36 122 -13 c94
-9 133 -18 167 -36 33 -18 42 -20 37 -8 -3 9 -11 48 -17 88 -11 68 -14 73 -67
124 -65 60 -70 61 -190 24z"/>
<path d="M3736 5064 c-98 -30 -181 -55 -183 -57 -2 -2 7 -40 21 -83 13 -43 48
-160 76 -259 29 -99 56 -184 61 -189 9 -10 335 78 353 95 6 5 3 30 -8 65 -18
57 -16 65 18 77 6 2 4 30 -4 68 -8 35 -15 69 -15 74 0 6 -15 18 -34 27 -31 16
-38 26 -62 105 -15 48 -28 96 -28 105 -1 9 -4 19 -8 21 -5 2 -89 -20 -187 -49z"/>
<path d="M339 5041 c-32 -25 -82 -59 -113 -74 -31 -16 -56 -32 -56 -35 0 -4
11 -41 25 -83 22 -64 30 -78 50 -81 13 -3 22 -2 20 3 -3 4 -1 9 4 11 6 1 42
53 81 113 62 96 71 114 66 144 -3 19 -9 37 -13 41 -4 4 -33 -13 -64 -39z"/>
<path d="M5600 5060 c-8 -5 -11 -12 -7 -16 4 -4 15 0 24 9 18 18 8 23 -17 7z"/>
<path d="M1605 5021 l-110 -38 55 -27 c39 -19 83 -57 152 -129 53 -56 98 -100
101 -97 3 3 -8 77 -24 165 -16 88 -29 161 -29 163 0 8 -49 -4 -145 -37z"/>
<path d="M48 5012 c-40 -13 -48 -20 -48 -40 0 -24 2 -24 55 -20 68 6 83 18 67
53 -13 29 -11 28 -74 7z"/>
<path d="M1145 4993 c-27 -8 -54 -19 -59 -24 -14 -13 12 -89 31 -89 21 0 156
40 166 49 12 12 -46 80 -68 80 -11 0 -42 -7 -70 -16z"/>
<path d="M1282 4978 c14 -18 34 -33 43 -33 35 0 25 21 -22 44 l-47 23 26 -34z"/>
<path d="M3338 4947 c-92 -29 -170 -55 -173 -58 -3 -4 9 -58 29 -120 19 -63
54 -183 77 -267 25 -87 48 -151 54 -148 5 2 87 25 180 52 94 26 174 50 178 54
5 4 -18 99 -52 211 -33 112 -68 232 -78 266 -12 42 -23 63 -33 62 -8 0 -90
-24 -182 -52z"/>
<path d="M5452 4957 c-24 -17 -38 -33 -33 -35 16 -5 81 38 81 54 0 17 4 19
-48 -19z"/>
<path d="M5555 4980 c-3 -6 1 -7 9 -4 18 7 21 14 7 14 -6 0 -13 -4 -16 -10z"/>
<path d="M1421 4963 l-43 -15 25 -26 c26 -25 77 -33 123 -18 11 3 28 0 38 -7
16 -12 16 -17 2 -78 -18 -80 -9 -164 28 -254 l25 -60 48 -1 c26 0 73 -4 104
-9 86 -12 90 -7 68 97 -20 99 -31 124 -56 133 -10 4 -54 47 -98 97 -63 71 -94
97 -147 124 -37 19 -69 34 -70 33 -2 0 -23 -8 -47 -16z"/>
<path d="M7369 4962 c-13 -10 -48 -32 -76 -48 -57 -31 -64 -50 -40 -107 l12
-29 54 64 c49 58 88 124 78 134 -2 2 -15 -4 -28 -14z"/>
<path d="M413 4938 c-11 -18 -39 -63 -62 -100 -22 -37 -41 -72 -41 -77 0 -6
25 -1 57 10 31 10 64 19 73 19 9 0 24 6 34 13 18 13 17 16 -4 83 -13 38 -26
73 -30 77 -4 5 -16 -7 -27 -25z"/>
<path d="M5264 4954 c3 -9 6 -18 6 -20 0 -2 16 -4 36 -4 l37 0 -26 20 c-31 24
-62 27 -53 4z"/>
<path d="M5845 4938 c-55 -16 -101 -31 -103 -33 -2 -2 11 -50 28 -107 17 -56
46 -154 63 -216 31 -111 32 -112 58 -107 61 14 204 64 203 72 -2 11 -101 328
-118 378 -8 21 -18 40 -22 41 -5 2 -54 -11 -109 -28z"/>
<path d="M1015 4955 c-5 -2 -56 -18 -112 -35 -73 -23 -103 -36 -103 -47 0 -21
60 -216 70 -226 11 -12 127 49 145 76 8 13 19 45 24 71 5 25 17 56 26 66 16
18 17 25 6 60 -11 38 -25 46 -56 35z"/>
<path d="M5193 4923 c-46 -14 -54 -20 -67 -54 -14 -33 -20 -39 -46 -39 -67 0
-94 -45 -50 -85 17 -15 21 -11 80 62 34 43 77 86 96 95 18 10 36 22 39 28 3 5
5 9 3 9 -2 -1 -26 -8 -55 -16z"/>
<path d="M38 4922 l-38 -3 0 -130 c0 -71 4 -129 8 -129 15 0 186 60 194 68 4
4 -5 46 -20 92 -20 60 -34 86 -47 89 -13 2 -15 5 -5 11 13 8 -19 9 -92 2z"/>
<path d="M1330 4921 c0 -5 24 -40 54 -77 69 -89 143 -204 162 -252 16 -41 15
-32 -7 78 -10 52 -8 123 6 182 l7 26 -65 -1 c-59 -2 -68 1 -94 26 -28 26 -63
36 -63 18z"/>
<path d="M1195 4883 c-44 -14 -81 -26 -82 -27 -11 -10 127 -416 141 -416 7 0
35 7 62 15 27 8 74 15 105 15 31 0 76 3 101 6 l45 6 -28 77 c-43 114 -207 350
-244 350 -11 -1 -56 -12 -100 -26z"/>
<path d="M5450 4900 c-9 -6 -42 -8 -82 -4 -38 3 -68 4 -68 1 0 -2 21 -12 48
-22 26 -10 52 -23 58 -31 7 -9 20 -11 40 -5 23 6 30 14 32 39 3 34 -3 38 -28
22z"/>
<path d="M1804 4883 c2 -10 10 -52 17 -94 l12 -76 126 -65 126 -65 65 19 c36
11 66 21 68 23 2 1 -13 43 -33 93 -33 82 -41 94 -83 121 -40 25 -64 31 -152
41 -58 6 -115 13 -128 16 -19 4 -23 1 -18 -13z"/>
<path d="M5223 4882 c-48 -25 -167 -179 -180 -233 -29 -115 -35 -160 -23 -174
15 -18 6 -45 -15 -45 -17 0 -19 -46 -6 -137 8 -60 12 -66 34 -58 10 5 22 42
37 123 12 64 33 156 46 204 21 73 23 93 15 125 -6 21 -11 41 -11 44 0 3 27 14
61 24 60 18 60 19 55 50 -4 20 -1 38 10 53 23 33 13 43 -23 24z"/>
<path d="M5575 4856 c-120 -36 -140 -44 -139 -61 2 -31 111 -396 122 -407 6
-6 60 6 148 32 76 23 140 43 141 44 2 1 -11 49 -28 107 -17 57 -37 127 -44
154 -22 78 -51 164 -55 169 -3 2 -68 -15 -145 -38z"/>
<path d="M3068 4866 c-37 -11 -69 -24 -73 -27 -5 -5 71 -287 81 -298 1 -1 37
7 79 20 56 16 75 26 70 37 -3 7 -8 26 -11 40 -8 36 -75 252 -77 251 -1 -1 -32
-11 -69 -23z"/>
<path d="M647 4840 c-65 -21 -121 -40 -124 -43 -6 -7 65 -227 78 -241 5 -5 32
1 66 16 32 15 84 32 116 39 32 7 60 16 63 20 5 9 -64 237 -74 243 -4 2 -60
-13 -125 -34z"/>
<path d="M5264 4855 c-20 -30 -12 -80 12 -71 8 3 39 13 69 22 30 8 55 19 55
23 0 7 -101 51 -116 51 -2 0 -11 -11 -20 -25z"/>
<path d="M7170 4850 c-19 -10 -63 -26 -98 -36 -36 -10 -61 -22 -59 -28 2 -6
14 -46 27 -88 13 -43 26 -78 31 -78 4 0 45 32 91 71 46 39 84 72 85 73 5 4
-29 106 -35 106 -4 -1 -23 -9 -42 -20z"/>
<path d="M6951 4834 c-14 -31 -10 -38 17 -30 14 5 18 13 14 31 -6 32 -16 32
-31 -1z"/>
<path d="M1072 4838 c-7 -7 -12 -19 -12 -28 0 -9 -7 -37 -16 -63 -14 -42 -22
-50 -90 -87 -41 -23 -74 -44 -74 -47 0 -13 73 -239 80 -246 7 -8 244 54 257
67 6 6 -108 372 -126 404 -5 9 -10 9 -19 0z"/>
<path d="M2775 4770 c-93 -33 -181 -60 -194 -60 -46 0 -162 -43 -157 -57 3 -7
20 -60 37 -117 l32 -104 51 -5 c37 -3 71 2 125 19 52 16 88 21 116 17 31 -4
70 4 158 31 109 34 117 38 111 59 -32 126 -83 272 -95 274 -8 1 -90 -25 -184
-57z"/>
<path d="M5338 4787 c-38 -11 -68 -25 -68 -32 0 -13 109 -417 114 -422 3 -4
146 34 152 39 1 2 -13 53 -30 113 -18 61 -46 155 -61 210 -16 55 -31 103 -34
106 -3 3 -36 -3 -73 -14z"/>
<path d="M401 4760 c-46 -15 -87 -34 -91 -40 -4 -7 -13 -9 -20 -5 -9 5 -11 4
-6 -3 4 -7 1 -12 -8 -12 -11 0 -16 -9 -16 -27 0 -27 42 -165 58 -190 6 -9 31
-5 102 17 52 16 110 30 128 30 19 0 32 5 32 13 0 24 -76 241 -86 243 -5 1 -47
-10 -93 -26z"/>
<path d="M6940 4780 c-14 -4 -74 -22 -135 -40 -60 -18 -113 -36 -117 -39 -4
-4 -1 -35 8 -69 9 -35 15 -65 13 -67 -2 -2 -105 -33 -229 -70 -231 -69 -297
-95 -306 -120 -3 -8 4 -44 15 -79 12 -36 21 -72 21 -80 0 -29 20 -27 46 4 58
69 190 120 389 151 164 25 222 53 329 154 l79 75 -29 95 c-30 99 -33 102 -84
85z"/>
<path d="M2202 4757 c5 -10 20 -22 34 -27 31 -12 31 -22 -1 -14 l-24 6 15 -46
c9 -25 17 -46 19 -46 17 0 136 43 141 51 3 6 -11 28 -31 49 -34 35 -43 39
-100 42 -58 3 -62 2 -53 -15z"/>
<path d="M5195 4743 c-27 -8 -51 -16 -53 -18 -2 -2 1 -19 7 -39 8 -30 5 -52
-14 -119 -28 -94 -69 -306 -61 -314 4 -5 106 20 269 65 9 2 17 10 17 18 0 14
-107 415 -112 419 -2 1 -25 -4 -53 -12z"/>
<path d="M5000 4722 c0 -12 -9 -36 -20 -54 -22 -37 -26 -53 -9 -42 21 13 52
95 40 107 -8 8 -11 5 -11 -11z"/>
<path d="M156 4689 c-22 -5 -44 -13 -50 -18 -6 -4 -33 -14 -60 -21 l-48 -13 5
-61 c5 -56 52 -231 67 -249 7 -8 138 299 147 345 6 31 3 32 -61 17z"/>
<path d="M1852 4608 c11 -46 23 -87 28 -92 9 -9 155 44 159 58 3 8 -183 115
-200 116 -3 0 3 -37 13 -82z"/>
<path d="M6505 4648 c-71 -23 -131 -42 -132 -43 -2 -1 5 -27 14 -58 12 -44 20
-56 32 -53 9 3 74 22 144 42 l129 38 -7 34 c-9 46 -26 82 -39 81 -6 0 -69 -19
-141 -41z"/>
<path d="M4385 4635 c-129 -38 -125 -27 -76 -183 17 -54 46 -146 64 -206 l34
-110 47 -16 c26 -8 50 -20 54 -26 5 -7 18 -8 39 -2 30 8 32 11 27 41 -3 17
-10 46 -15 63 -5 17 -7 38 -4 47 4 8 -7 48 -23 89 -16 41 -37 109 -47 151 -16
73 -16 81 0 128 9 28 15 52 13 54 -2 1 -52 -12 -113 -30z"/>
<path d="M2375 4653 c-11 -3 -44 -14 -73 -25 -58 -22 -57 -17 -25 -105 9 -24
22 -43 30 -43 8 0 12 -4 9 -8 -9 -15 52 -52 86 -52 80 0 79 -2 40 126 -20 63
-38 113 -41 113 -3 -1 -15 -4 -26 -6z"/>
<path d="M231 4613 c-14 -28 -80 -190 -112 -275 l-28 -77 34 -44 c40 -52 71
-63 136 -48 24 6 58 11 74 11 53 1 58 10 36 71 -11 30 -43 127 -71 217 -29 89
-54 162 -56 162 -2 0 -7 -8 -13 -17z"/>
<path d="M4993 4605 c-3 -9 -3 -18 -1 -21 3 -3 8 4 11 16 6 23 -1 27 -10 5z"/>
<path d="M755 4586 c-92 -25 -145 -51 -145 -69 0 -20 69 -220 79 -230 7 -7
235 54 248 67 3 2 -13 60 -34 127 -25 80 -44 125 -53 126 -8 1 -51 -8 -95 -21z"/>
<path d="M2155 4583 l-49 -15 29 -24 c34 -28 126 -76 133 -70 7 8 -43 126 -53
125 -5 -1 -32 -8 -60 -16z"/>
<path d="M6255 4569 c-49 -16 -94 -29 -100 -29 -5 0 -16 -4 -23 -9 -12 -7 -11
-19 4 -67 10 -33 19 -61 21 -63 2 -3 20 5 41 16 20 12 70 31 110 42 55 17 72
26 72 40 0 20 -19 82 -29 93 -3 3 -46 -7 -96 -23z"/>
<path d="M4170 4574 c-25 -8 -50 -16 -57 -18 -12 -5 2 -68 63 -264 l28 -92 32
6 c27 5 38 0 72 -30 22 -20 49 -36 60 -36 l21 0 -20 58 c-11 31 -42 131 -68
222 -53 183 -50 180 -131 154z"/>
<path d="M2040 4549 c-14 -5 -56 -21 -93 -35 -79 -30 -78 -18 -24 -188 23 -72
36 -100 51 -106 17 -7 18 -9 4 -9 -10 -1 -18 -4 -18 -7 0 -8 72 -237 76 -242
3 -4 144 39 386 117 142 46 147 49 129 65 -11 10 -25 32 -32 49 -21 54 -184
247 -208 247 -11 0 -80 -132 -95 -182 -4 -13 -9 -18 -12 -11 -3 7 15 55 39
107 l45 95 -44 15 c-24 8 -69 33 -100 55 -61 44 -65 45 -104 30z m-82 -101
c-18 -27 -51 -30 -56 -6 -2 11 5 18 20 21 50 9 52 9 36 -15z"/>
<path d="M3140 4541 c-44 -14 -54 -21 -52 -37 4 -21 53 -197 57 -201 1 -2 34
7 73 19 49 14 72 26 72 37 0 8 -12 57 -26 108 -30 105 -28 104 -124 74z"/>
<path d="M1561 4545 c0 -5 6 -21 14 -35 8 -14 14 -20 14 -15 0 6 -6 21 -14 35
-8 14 -14 21 -14 15z"/>
<path d="M3900 4497 c-96 -28 -177 -52 -179 -54 -5 -4 67 -264 79 -282 6 -11
20 -9 71 9 35 12 93 30 128 40 l63 19 34 -25 c25 -20 40 -24 62 -19 l29 6 -50
172 c-27 95 -52 175 -55 179 -4 3 -86 -17 -182 -45z"/>
<path d="M530 4513 c-52 -9 -190 -54 -196 -64 -8 -13 58 -219 70 -219 4 0 6 7
2 15 -3 9 1 16 9 17 8 0 20 1 26 2 7 1 16 -9 20 -22 8 -20 5 -25 -22 -34 -16
-6 -28 -12 -26 -14 5 -5 239 66 249 75 8 7 -58 217 -75 239 -10 12 -13 13 -57
5z"/>
<path d="M6078 4515 c-3 -3 -48 -17 -99 -31 -52 -14 -97 -29 -100 -32 -6 -6
55 -219 65 -229 15 -15 66 20 127 88 l71 79 -19 62 c-17 57 -31 77 -45 63z"/>
<path d="M2930 4474 c-81 -26 -115 -33 -147 -28 -31 5 -61 0 -110 -17 -38 -13
-69 -24 -71 -25 -2 -1 10 -26 27 -55 27 -49 36 -76 55 -161 5 -24 9 -26 34
-18 143 44 372 113 390 117 15 4 21 11 18 22 -15 46 -56 192 -56 196 0 10 -39
2 -140 -31z"/>
<path d="M1647 4483 c-33 -9 -15 -38 27 -43 32 -4 41 -10 49 -33 8 -23 5 -34
-12 -58 -25 -33 -26 -47 -6 -73 8 -11 15 -33 15 -48 0 -30 34 -103 106 -229
l44 -76 58 13 c31 7 64 14 73 16 15 3 12 18 -20 123 l-37 120 -39 12 -40 11
33 1 c39 1 39 4 8 101 -13 41 -29 93 -35 116 -11 41 -11 41 -58 40 -27 0 -70
3 -98 6 -27 4 -58 4 -68 1z"/>
<path d="M1450 4455 c-140 -15 -188 -24 -196 -36 -5 -8 7 -50 113 -389 76
-242 105 -334 108 -338 4 -4 205 97 205 103 0 3 -18 -2 -39 -11 -67 -27 -98 3
-102 97 -2 38 3 63 15 81 15 23 16 36 6 108 -13 95 -9 112 32 141 17 12 39 42
50 65 l19 44 -42 75 c-22 41 -42 74 -42 74 -1 -1 -58 -7 -127 -14z"/>
<path d="M1 4408 c-1 -45 2 -56 13 -52 11 4 12 14 4 47 -14 65 -16 66 -17 5z"/>
<path d="M5000 4450 c0 -5 5 -10 10 -10 6 0 10 5 10 10 0 6 -4 10 -10 10 -5 0
-10 -4 -10 -10z"/>
<path d="M3625 4418 c-38 -10 -71 -21 -73 -23 -5 -4 40 -147 49 -159 4 -5 22
-3 41 4 18 7 49 14 68 17 19 2 35 5 36 6 3 2 -45 170 -49 173 -1 1 -33 -7 -72
-18z"/>
<path d="M4876 4409 c-25 -29 -36 -79 -17 -79 5 0 14 7 22 16 10 12 10 20 2
33 -9 15 -7 22 10 40 12 11 19 21 15 21 -3 0 -18 -14 -32 -31z"/>
<path d="M5680 4396 c-74 -23 -170 -50 -212 -61 -43 -10 -78 -24 -78 -30 0 -5
16 -59 35 -120 34 -110 34 -124 -3 -125 -10 0 -12 -9 -7 -32 4 -18 11 -37 16
-42 5 -6 107 21 264 69 140 43 255 79 255 81 0 2 -11 38 -24 81 -14 43 -34
111 -46 151 -18 62 -24 72 -43 71 -12 0 -83 -20 -157 -43z"/>
<path d="M1648 4384 c20 -33 29 -40 39 -32 7 6 13 21 13 33 0 18 -8 25 -39 32
l-39 10 26 -43z"/>
<path d="M4915 4410 c-10 -11 -12 -20 -6 -24 5 -4 13 3 16 15 4 11 9 18 12 16
2 -3 0 -15 -7 -26 -9 -18 -7 -27 10 -50 22 -32 26 -61 10 -77 -14 -14 -2 -44
17 -44 15 0 14 42 -3 162 -6 43 -25 54 -49 28z"/>
<path d="M2471 4409 c-34 -4 -67 -9 -72 -11 -5 -2 18 -37 52 -78 33 -41 70
-93 81 -115 33 -65 48 -75 97 -62 45 12 46 17 31 85 -19 82 -88 195 -117 191
-4 -1 -37 -5 -72 -10z"/>
<path d="M1086 4377 c-60 -18 -111 -37 -113 -43 -2 -6 23 -92 55 -190 33 -99
85 -260 116 -359 32 -99 67 -209 78 -245 l21 -65 21 29 c66 91 86 112 137 140
66 37 72 -10 -47 376 -126 408 -118 385 -140 387 -10 1 -68 -13 -128 -30z"/>
<path d="M3410 4359 c-52 -17 -118 -37 -147 -44 -28 -8 -65 -20 -81 -27 l-30
-13 20 -65 c11 -36 21 -66 22 -67 1 -2 40 8 87 22 46 13 120 26 164 29 45 3
93 10 109 16 25 9 27 14 21 42 -15 66 -42 133 -56 135 -8 1 -57 -12 -109 -28z"/>
<path d="M6075 4291 c-39 -46 -68 -72 -87 -76 -15 -4 -30 -10 -33 -14 -2 -5
12 -65 32 -135 l37 -127 36 6 c19 4 38 10 41 13 4 4 23 45 44 92 21 47 44 92
51 101 12 13 10 29 -14 109 -15 51 -33 95 -38 97 -6 2 -37 -28 -69 -66z"/>
<path d="M4876 4331 c-16 -18 -16 -20 8 -47 24 -28 25 -28 43 -11 16 16 16 20
3 44 -19 34 -33 38 -54 14z"/>
<path d="M13 4333 c-9 -3 -13 -30 -13 -84 0 -47 4 -78 9 -74 20 12 43 94 37
130 -7 35 -10 38 -33 28z"/>
<path d="M811 4297 c-58 -18 -106 -38 -109 -45 -2 -6 38 -141 88 -299 51 -159
99 -310 107 -336 14 -47 15 -48 47 -42 28 6 35 3 49 -19 9 -14 14 -32 11 -40
-4 -11 7 -16 47 -23 48 -7 53 -11 64 -42 9 -27 13 -31 18 -18 5 13 18 17 52
17 25 0 45 3 45 6 0 6 -23 80 -157 494 -52 162 -100 313 -107 335 -8 27 -19
41 -32 42 -10 1 -66 -13 -123 -30z"/>
<path d="M5300 4290 c-36 -10 -102 -28 -148 -40 l-82 -22 33 -47 c64 -90 99
-161 94 -189 -8 -38 3 -82 20 -82 7 0 54 12 104 28 99 30 94 23 74 104 -5 19
-1 26 18 33 l25 10 -32 107 c-17 59 -34 109 -36 111 -3 3 -34 -4 -70 -13z"/>
<path d="M1665 4269 c-4 -15 -26 -45 -49 -68 l-43 -42 14 -86 c13 -82 13 -86
-8 -120 -17 -28 -20 -43 -15 -81 9 -70 24 -80 89 -59 30 9 59 17 66 17 7 0 30
13 50 29 20 15 46 31 59 35 12 4 22 12 22 17 0 5 -34 73 -75 151 -41 78 -75
151 -75 162 -1 12 -7 32 -15 46 l-13 25 -7 -26z"/>
<path d="M4831 4287 c-1 -5 9 -23 21 -40 13 -18 22 -37 20 -44 -1 -7 5 -9 17
-6 19 5 19 7 4 38 -10 21 -21 31 -30 28 -9 -4 -11 0 -7 13 4 14 3 16 -4 5 -8
-11 -10 -11 -15 0 -3 8 -6 10 -6 6z"/>
<path d="M3045 4247 c-33 -11 -61 -21 -62 -22 -5 -3 39 -125 44 -125 6 0 123
29 140 35 18 6 -27 135 -47 134 -8 0 -42 -10 -75 -22z"/>
<path d="M543 4212 c-61 -20 -115 -40 -119 -44 -3 -4 29 -116 72 -248 l78
-240 32 6 c26 5 34 2 44 -15 6 -12 9 -33 8 -48 -2 -18 2 -28 12 -29 83 -13 90
-15 96 -39 4 -16 21 -31 48 -45 51 -24 82 -26 90 -4 4 9 -34 143 -83 298 -50
155 -102 318 -116 364 -14 45 -31 82 -38 81 -7 0 -62 -17 -124 -37z"/>
<path d="M3648 4223 c-21 -8 -38 -20 -38 -25 0 -10 21 -90 26 -96 1 -2 34 6
74 18 65 19 71 23 66 43 -4 12 -9 34 -12 50 -6 23 -11 27 -43 26 -20 0 -53 -7
-73 -16z"/>
<path d="M4916 4227 c3 -10 9 -15 12 -12 3 3 0 11 -7 18 -10 9 -11 8 -5 -6z"/>
<path d="M55 4191 c-8 -17 -12 -37 -9 -45 6 -16 44 -23 44 -8 0 5 8 8 18 8 9
-1 18 4 19 9 0 6 -3 9 -9 7 -5 -1 -6 2 -3 8 7 11 -21 50 -36 50 -5 0 -15 -13
-24 -29z m32 -3 c-3 -8 -6 -5 -6 6 -1 11 2 17 5 13 3 -3 4 -12 1 -19z"/>
<path d="M2850 4189 c-52 -17 -105 -33 -118 -36 -28 -7 -36 -24 -28 -57 4 -17
17 -27 50 -36 45 -12 56 -11 182 17 l71 16 -20 63 c-12 35 -26 64 -32 63 -5 0
-53 -14 -105 -30z"/>
<path d="M5023 4214 c-15 -7 -5 -36 42 -116 20 -33 43 -92 53 -131 15 -65 19
-72 41 -72 24 0 25 2 22 65 -3 70 -12 92 -79 193 -43 64 -52 71 -79 61z"/>
<path d="M4012 4197 c-24 -5 -41 -15 -39 -21 2 -6 17 -58 32 -115 16 -57 35
-105 42 -108 7 -3 42 5 77 16 36 12 71 21 78 21 36 1 40 15 23 76 -31 105 -31
106 -70 103 -23 -2 -44 4 -64 19 -17 12 -31 21 -33 21 -2 -1 -22 -6 -46 -12z"/>
<path d="M3540 4190 c-14 -4 -44 -8 -67 -9 -24 -1 -43 -4 -43 -7 0 -8 32 -118
35 -122 2 -2 36 7 78 19 l74 21 -11 52 c-12 53 -22 60 -66 46z"/>
<path d="M4980 4173 c0 -21 7 -36 24 -46 l24 -16 -20 42 c-27 55 -28 56 -28
20z"/>
<path d="M4222 4182 c-10 -7 -7 -26 13 -90 14 -45 30 -82 34 -82 7 0 73 21 79
25 1 1 -7 27 -18 59 -26 77 -69 112 -108 88z"/>
<path d="M4936 4175 c4 -8 8 -15 10 -15 2 0 4 7 4 15 0 8 -4 15 -10 15 -5 0
-7 -7 -4 -15z"/>
<path d="M3385 4173 c-71 -13 -185 -48 -184 -57 2 -25 37 -111 45 -110 5 1 51
12 102 24 l94 23 -7 36 c-11 60 -28 87 -50 84z"/>
<path d="M3880 4154 c-35 -12 -66 -27 -68 -32 -3 -11 53 -210 62 -219 6 -6
135 27 141 37 5 8 -58 240 -65 239 -3 -1 -34 -12 -70 -25z"/>
<path d="M4837 4135 l-46 -45 14 -47 c8 -27 27 -92 42 -145 15 -54 32 -98 38
-98 7 0 41 9 77 21 46 14 68 26 71 40 3 10 12 19 21 19 21 0 30 42 17 82 -6
18 -35 60 -65 93 -29 33 -61 75 -70 93 -22 43 -44 41 -99 -13z"/>
<path d="M344 4161 c-53 -9 -112 -57 -113 -92 -1 -14 -10 -34 -21 -44 -25 -23
-24 -30 38 -228 42 -135 49 -150 76 -164 42 -22 51 -36 82 -126 14 -43 37 -91
52 -108 17 -21 25 -41 24 -64 l-1 -34 42 13 c23 7 75 23 115 36 39 12 72 27
72 33 0 17 -38 134 -51 158 -11 22 -130 139 -140 139 -4 0 -14 20 -23 44 -16
41 -20 44 -60 50 -36 6 -53 16 -89 55 -37 39 -46 57 -52 101 -4 29 -16 68 -27
86 -21 36 -21 75 1 82 9 3 11 -1 7 -16 -4 -13 1 -36 13 -59 10 -21 22 -61 26
-87 11 -70 69 -132 132 -142 41 -6 47 -10 64 -49 10 -23 25 -48 33 -54 8 -7
-22 97 -67 233 -45 135 -84 245 -87 245 -3 -1 -24 -5 -46 -8z"/>
<path d="M20 4135 c-10 -12 -10 -15 4 -15 9 0 16 7 16 15 0 8 -2 15 -4 15 -2
0 -9 -7 -16 -15z"/>
<path d="M198 4143 c-20 -5 -24 -28 -6 -39 7 -5 8 -3 3 6 -5 8 -3 11 6 8 8 -3
20 2 27 11 8 10 11 10 6 2 -5 -9 -3 -12 4 -7 31 19 5 31 -40 19z"/>
<path d="M6203 4128 c-18 -21 -74 -150 -68 -156 3 -3 32 3 65 13 67 20 64 10
31 109 -14 38 -19 45 -28 34z"/>
<path d="M2618 4117 l-26 -12 31 -102 c29 -93 34 -103 56 -103 13 0 47 -7 75
-16 51 -16 53 -16 161 16 61 18 115 35 121 39 14 8 -16 137 -32 134 -5 -1 -55
-11 -111 -22 -95 -19 -103 -19 -152 -4 -35 12 -51 22 -51 34 0 48 -21 59 -72
36z"/>
<path d="M116 4111 c-7 -11 14 -20 32 -14 6 3 12 9 12 14 0 12 -37 12 -44 0z"/>
<path d="M3103 4101 c-34 -9 -64 -19 -67 -22 -4 -3 2 -32 12 -65 19 -63 40
-78 70 -51 9 9 34 18 55 22 20 4 39 11 42 15 7 11 -30 113 -41 116 -5 1 -37
-5 -71 -15z"/>
<path d="M3700 4100 c-32 -10 -55 -24 -54 -31 2 -24 56 -204 64 -212 8 -9 119
19 134 34 6 5 5 23 -2 46 -60 210 -46 194 -142 163z"/>
<path d="M4354 4083 c10 -28 18 -37 32 -35 25 5 24 4 16 38 -6 21 -15 30 -35
32 l-26 3 13 -38z"/>
<path d="M5697 4040 c-137 -43 -251 -81 -254 -84 -6 -6 34 -154 47 -175 5 -10
56 3 206 49 288 89 309 97 308 106 -4 31 -48 184 -53 183 -3 -1 -118 -36 -254
-79z"/>
<path d="M4418 4083 c4 -22 8 -24 35 -19 17 3 33 8 36 11 8 9 -13 22 -45 28
-29 6 -31 4 -26 -20z"/>
<path d="M4995 4090 c10 -11 20 -18 23 -15 7 6 -18 35 -31 35 -5 0 -2 -9 8
-20z"/>
<path d="M16 4089 c2 -4 1 -9 -3 -12 -5 -2 -2 -2 5 0 8 1 23 3 34 3 12 0 18 3
15 7 -9 9 -57 11 -51 2z"/>
<path d="M2385 4048 c-88 -27 -198 -61 -245 -75 -93 -27 -103 -32 -92 -50 5
-8 96 -14 299 -19 l292 -7 -24 79 c-14 43 -28 89 -31 102 -3 12 -14 22 -23 21
-9 -1 -88 -23 -176 -51z"/>
<path d="M4614 4092 c-25 -17 -23 -61 6 -157 17 -54 30 -104 30 -111 0 -8 1
-14 3 -14 8 0 180 49 183 53 2 2 -11 52 -28 111 -26 89 -36 110 -56 117 -28
11 -123 12 -138 1z"/>
<path d="M190 4053 c0 -25 1 -26 16 -11 9 9 13 21 10 27 -13 20 -26 11 -26
-16z"/>
<path d="M4538 4072 c-24 -5 -23 -11 12 -122 17 -52 30 -98 30 -102 0 -4 4
-18 9 -32 8 -18 15 -23 31 -19 15 4 19 11 15 27 -21 70 -68 223 -73 237 -4 8
-15 13 -24 11z"/>
<path d="M3540 4054 c-25 -8 -50 -16 -57 -18 -8 -3 -1 -38 22 -116 19 -62 36
-114 39 -117 3 -3 35 3 71 13 77 22 77 21 38 159 -30 106 -29 105 -113 79z"/>
<path d="M120 4051 c0 -6 4 -13 10 -16 6 -3 7 1 4 9 -7 18 -14 21 -14 7z"/>
<path d="M4459 4047 l-27 -12 23 -70 c12 -38 30 -96 39 -127 16 -56 18 -58 51
-58 19 0 35 2 35 4 0 3 -11 40 -24 83 -13 43 -31 104 -40 136 -18 62 -18 62
-57 44z"/>
<path d="M30 4041 l-25 -7 -3 -224 c-3 -189 0 -234 14 -282 11 -36 23 -58 31
-58 19 0 195 60 209 71 6 5 14 6 17 2 4 -3 -4 27 -18 67 -48 141 -105 327
-105 342 0 25 -59 98 -78 97 -9 -1 -28 -4 -42 -8z"/>
<path d="M3344 4011 l-102 -26 39 -124 c21 -68 40 -125 42 -127 7 -8 191 53
195 64 4 12 -57 223 -67 233 -3 3 -52 -6 -107 -20z"/>
<path d="M4378 4025 c-6 -6 74 -265 82 -265 3 0 11 4 19 9 15 10 12 21 -51
229 -9 29 -34 43 -50 27z"/>
<path d="M4315 4005 c-36 -10 -40 -14 -38 -40 1 -16 12 -36 23 -45 26 -20 60
-126 53 -164 -5 -25 -3 -28 11 -23 10 4 29 10 42 13 13 3 24 12 24 20 0 7 -16
64 -36 126 -19 62 -36 116 -37 119 -1 3 -20 1 -42 -6z"/>
<path d="M6188 3966 c-44 -12 -70 -26 -73 -37 -3 -10 -19 -21 -35 -24 -40 -9
-43 -18 -25 -61 13 -32 18 -35 42 -29 56 14 158 58 171 74 13 16 9 79 -6 92
-4 3 -37 -4 -74 -15z"/>
<path d="M3185 3973 c-11 -2 -41 -14 -66 -25 l-46 -21 41 -124 c31 -94 44
-122 56 -119 8 3 41 12 73 21 31 9 57 22 57 28 0 29 -74 247 -84 246 -6 -1
-20 -3 -31 -6z"/>
<path d="M4136 3955 c-44 -14 -80 -26 -82 -28 -6 -6 49 -173 63 -188 7 -8 13
-28 13 -42 0 -15 2 -27 5 -27 10 0 161 43 172 49 9 5 6 16 -12 43 -29 43 -49
122 -37 146 13 26 -1 67 -23 69 -11 1 -56 -9 -99 -22z"/>
<path d="M5311 3919 c-52 -16 -96 -30 -97 -32 -3 -3 51 -175 58 -182 9 -9 198
55 198 67 0 23 -51 178 -58 177 -4 0 -49 -13 -101 -30z"/>
<path d="M1955 3925 l-50 -13 63 -1 c45 -1 63 2 60 11 -6 17 -17 18 -73 3z"/>
<path d="M6060 3924 c-33 -13 -33 -14 -5 -8 17 3 34 10 40 15 11 11 8 11 -35
-7z"/>
<path d="M2955 3894 c-44 -13 -92 -27 -107 -30 -16 -4 -28 -10 -28 -14 0 -4
18 -29 39 -57 25 -30 45 -70 54 -107 9 -32 18 -60 20 -62 2 -3 44 7 92 21 48
14 94 25 102 25 8 0 13 6 11 13 -3 6 -22 63 -42 125 -21 61 -43 112 -49 111
-7 0 -48 -11 -92 -25z"/>
<path d="M3952 3901 c-34 -10 -65 -21 -68 -24 -4 -3 8 -54 26 -114 17 -59 33
-115 36 -124 4 -16 10 -15 75 1 39 10 74 21 77 25 3 3 1 15 -6 25 -7 11 -12
30 -12 43 0 41 -46 188 -59 186 -3 0 -34 -9 -69 -18z"/>
<path d="M5895 3876 c-55 -18 -165 -52 -244 -77 -79 -24 -145 -49 -148 -55 -2
-6 1 -22 6 -36 l10 -26 78 24 c44 14 87 34 98 47 13 14 63 36 137 60 65 21
120 42 124 48 3 6 20 19 38 30 44 27 17 23 -99 -15z"/>
<path d="M4270 3888 c0 -20 24 -90 39 -117 9 -16 16 -20 23 -13 7 7 5 31 -7
76 -14 51 -22 66 -36 66 -11 0 -19 -6 -19 -12z"/>
<path d="M1813 3865 c-87 -43 -87 -48 -9 -117 76 -69 80 -87 26 -143 -17 -17
-32 -45 -36 -62 -9 -45 19 -57 136 -58 52 0 100 -4 107 -8 18 -11 27 -72 14
-95 -9 -17 -7 -21 12 -26 37 -10 92 -7 105 6 19 19 15 40 -54 272 -36 122 -68
229 -70 239 -5 14 -18 17 -93 17 -73 0 -95 -4 -138 -25z"/>
<path d="M2060 3879 c0 -9 93 -326 131 -446 9 -29 14 -32 37 -27 49 12 503
152 508 157 3 3 -16 75 -42 160 -44 145 -49 156 -74 161 -55 11 -560 7 -560
-5z"/>
<path d="M2701 3753 c52 -171 58 -184 78 -179 122 34 131 37 131 54 0 45 -34
119 -75 167 -48 57 -96 85 -143 85 l-30 0 39 -127z"/>
<path d="M5159 3870 c-11 -6 -14 -19 -11 -40 5 -36 13 -43 45 -35 23 6 24 9
15 46 -11 40 -21 46 -49 29z"/>
<path d="M5990 3864 c-17 -19 -59 -37 -177 -75 -60 -19 -96 -37 -103 -49 -7
-13 -40 -29 -98 -46 -48 -14 -88 -27 -89 -28 -6 -5 22 -76 29 -76 5 0 51 26
101 58 68 43 120 66 202 90 168 51 197 63 190 79 -3 8 -8 26 -11 39 -7 28 -26
31 -44 8z"/>
<path d="M3697 3825 c-76 -24 -141 -45 -143 -48 -3 -3 8 -52 24 -109 27 -96
31 -103 53 -100 13 1 47 3 74 3 28 0 89 10 138 21 66 15 87 24 87 37 -1 40
-67 236 -81 237 -8 1 -76 -17 -152 -41z"/>
<path d="M5078 3843 c-21 -5 -21 -2 -7 -42 12 -33 16 -36 38 -22 9 6 11 18 6
40 -4 17 -10 30 -13 30 -4 -1 -15 -3 -24 -6z"/>
<path d="M4743 3818 c-82 -24 -82 -24 -57 -109 21 -72 23 -73 48 -51 11 10 47
26 80 35 32 9 61 18 63 21 3 2 -3 32 -13 65 -19 70 -16 69 -121 39z"/>
<path d="M4990 3810 c-14 -5 -43 -14 -66 -19 -37 -10 -41 -14 -36 -36 2 -14 8
-27 12 -30 6 -4 150 32 158 40 2 1 0 14 -4 29 -6 27 -21 31 -64 16z"/>
<path d="M1601 3731 c-58 -31 -106 -62 -109 -69 -4 -13 85 -302 97 -314 4 -4
67 10 140 31 l133 39 68 -18 c37 -10 73 -20 78 -24 19 -12 33 30 20 58 -13 30
-9 29 -105 26 -82 -2 -133 11 -150 39 -17 27 0 81 37 116 16 16 30 37 30 48 0
19 -107 127 -125 126 -5 0 -57 -26 -114 -58z"/>
<path d="M5195 3780 c-26 -5 -30 -9 -27 -35 2 -16 8 -39 13 -51 7 -21 11 -22
39 -13 34 12 34 11 17 64 -11 38 -14 40 -42 35z"/>
<path d="M4610 3763 c0 -10 8 -45 18 -78 15 -49 22 -59 38 -57 10 2 20 5 22 7
2 2 -6 35 -18 74 -17 56 -26 71 -41 71 -11 0 -19 -7 -19 -17z"/>
<path d="M3425 3743 c-49 -15 -92 -28 -94 -30 -2 -1 9 -50 24 -109 32 -120 12
-111 158 -72 89 23 85 7 44 152 -12 44 -27 81 -32 82 -6 1 -50 -9 -100 -23z"/>
<path d="M4547 3763 c-30 -5 -30 -14 2 -102 13 -35 21 -45 43 -48 14 -2 29 0
32 5 6 10 -35 153 -43 151 -3 -1 -18 -4 -34 -6z"/>
<path d="M4478 3753 c-22 -6 -22 -13 0 -87 19 -62 27 -72 52 -56 12 8 11 19
-8 79 -13 39 -24 70 -25 70 -1 -1 -10 -3 -19 -6z"/>
<path d="M5005 3733 c-49 -14 -92 -27 -94 -29 -8 -7 22 -104 33 -104 6 0 56
14 109 31 80 24 97 33 93 47 -2 9 -7 32 -11 50 -8 39 -12 39 -130 5z"/>
<path d="M5850 3716 c-86 -32 -162 -72 -303 -160 -104 -64 -192 -116 -197
-116 -5 0 -13 -6 -17 -14 -4 -8 -48 -37 -96 -64 -49 -27 -88 -53 -88 -58 0 -5
-10 -15 -22 -22 -21 -13 -9 -11 28 4 34 14 12 -17 -30 -41 -44 -26 -44 -27
-29 -51 9 -13 18 -24 20 -24 3 0 22 11 44 25 46 29 50 30 50 12 0 -7 -18 -23
-40 -36 -22 -12 -40 -24 -40 -27 0 -14 32 -64 40 -64 6 0 109 78 231 172 150
118 219 177 216 188 -3 8 -7 22 -11 30 -4 10 7 22 35 38 39 23 41 23 55 5 7
-10 14 -21 14 -25 0 -4 21 2 46 12 50 22 78 26 72 10 -1 -5 -46 -36 -98 -68
-52 -32 -195 -136 -317 -232 l-222 -174 27 -48 c14 -26 29 -45 31 -42 3 2 19
-10 37 -27 30 -29 32 -30 39 -11 3 12 14 24 23 27 9 3 41 35 71 71 52 61 57
64 99 64 36 0 42 3 33 14 -9 10 6 35 69 114 43 55 89 107 101 115 20 14 20 16
4 41 -23 34 -3 33 27 -1 13 -16 33 -33 44 -39 10 -6 20 -21 22 -33 4 -24 -24
-75 -36 -67 -4 2 -6 -14 -3 -36 2 -30 -1 -43 -13 -50 -9 -5 -16 -13 -16 -18 0
-5 -11 -21 -25 -36 -19 -21 -22 -30 -14 -45 12 -23 29 -25 29 -3 0 14 33 69
50 84 3 3 16 38 29 79 23 73 23 73 54 67 17 -3 32 -8 35 -10 2 -2 -4 -51 -13
-108 -16 -101 -49 -178 -76 -178 -7 0 -9 -12 -5 -33 8 -44 -10 -97 -34 -97
-31 0 -49 11 -43 26 7 19 -6 18 -45 -6 -18 -11 -41 -20 -52 -20 -16 0 -60 -47
-60 -64 0 -10 35 7 43 21 4 7 16 13 25 13 10 0 23 5 29 11 13 13 73 3 73 -12
0 -16 -31 -72 -52 -96 -11 -12 -17 -27 -13 -33 5 -8 12 -5 22 9 8 12 21 21 29
21 8 0 14 7 14 15 0 8 14 28 31 44 17 17 28 35 25 40 -4 6 9 27 29 48 32 34
35 35 29 13 -4 -14 -7 -34 -6 -45 1 -10 -4 -25 -10 -32 -7 -9 -7 -13 1 -13 7
0 11 -21 11 -56 0 -49 -2 -55 -17 -49 -15 5 -16 4 -5 -6 6 -7 12 -37 12 -66
l0 -53 -37 0 c-21 0 -68 -3 -105 -7 l-68 -6 0 28 c0 15 10 43 22 63 l22 35
-30 -7 c-16 -4 -30 -12 -32 -17 -6 -16 -18 -10 -30 15 -7 17 -7 27 1 35 8 8 5
11 -11 11 -12 0 -26 10 -33 23 -12 22 -28 37 -42 37 -4 0 7 -28 24 -61 27 -54
29 -65 19 -90 -7 -15 -9 -32 -6 -38 4 -5 -3 -15 -14 -21 -16 -8 -20 -8 -20 4
0 7 -7 17 -16 20 -10 4 -14 12 -10 22 4 11 -3 9 -26 -7 -28 -20 -29 -23 -12
-30 11 -3 26 -18 33 -33 13 -24 13 -28 -5 -41 -10 -8 -28 -15 -39 -15 -26 0
-57 -50 -45 -70 6 -8 10 -45 10 -82 0 -73 13 -88 33 -40 7 15 18 34 24 42 7 8
33 41 58 72 26 32 54 58 63 58 9 0 26 7 36 15 28 21 95 19 134 -5 29 -18 32
-18 32 -3 0 9 -10 27 -22 40 -25 27 -22 32 23 39 55 8 63 -4 47 -69 -14 -55
-14 -56 9 -66 23 -11 33 2 12 15 -14 8 -3 102 14 122 6 8 10 31 8 53 -1 21 1
44 5 51 4 6 7 33 5 59 -2 36 1 48 15 53 16 6 16 8 0 25 -13 15 -16 28 -10 57
4 22 12 42 18 46 7 5 3 13 -11 23 -27 19 -30 57 -8 99 9 16 14 35 11 42 -3 7
2 34 11 59 8 25 13 55 10 66 -3 11 1 39 9 61 8 22 14 73 14 112 0 82 29 182
67 233 18 25 22 37 14 52 -13 24 -5 31 36 31 18 0 33 2 33 5 0 10 -104 105
-114 104 -6 0 -63 -19 -126 -43z"/>
<path d="M4398 3727 c-26 -6 -38 -15 -38 -26 0 -20 29 -112 39 -124 6 -6 65 8
79 18 2 2 -25 99 -37 126 -5 13 -13 14 -43 6z"/>
<path d="M5363 3711 c-60 -19 -83 -31 -83 -43 0 -21 29 -51 44 -45 6 3 48 15
94 28 45 13 82 27 82 31 0 4 -4 18 -10 32 -12 32 -22 31 -127 -3z"/>
<path d="M3233 3687 c-53 -14 -73 -24 -73 -36 1 -24 49 -184 59 -194 5 -5 17
-5 27 1 11 5 43 15 72 22 45 10 52 15 47 31 -4 10 -17 57 -30 105 -13 47 -25
87 -27 88 -2 1 -36 -7 -75 -17z"/>
<path d="M4223 3677 c-39 -12 -75 -25 -78 -29 -4 -4 0 -36 10 -71 l17 -64 97
25 c53 14 97 27 99 28 2 1 -5 31 -15 65 -22 75 -26 77 -130 46z"/>
<path d="M4820 3677 c-36 -12 -74 -30 -86 -40 -18 -17 -20 -23 -10 -58 5 -21
15 -39 21 -39 15 0 159 42 167 49 6 5 -19 113 -25 110 -1 0 -31 -10 -67 -22z"/>
<path d="M603 3663 c-18 -7 -16 -28 3 -44 13 -10 17 -10 25 2 18 28 1 54 -28
42z"/>
<path d="M5210 3660 c-22 -14 0 -30 32 -23 17 3 25 10 21 19 -6 16 -31 18 -53
4z"/>
<path d="M3053 3634 c-45 -12 -89 -24 -98 -27 -21 -9 -19 -53 5 -77 22 -22
117 -71 173 -90 66 -21 69 -13 41 90 -39 141 -26 130 -121 104z"/>
<path d="M5415 3633 c-83 -27 -151 -34 -172 -19 -8 5 -13 4 -13 -3 0 -6 5 -11
10 -11 6 0 10 -6 10 -14 0 -7 6 -19 14 -25 8 -7 24 -32 35 -57 12 -24 23 -44
26 -44 7 0 189 100 198 109 9 9 -12 92 -22 90 -3 0 -42 -12 -86 -26z"/>
<path d="M1396 3622 c-35 -19 -60 -43 -92 -91 -24 -36 -44 -73 -44 -81 0 -26
70 -84 142 -119 l67 -32 50 17 c28 9 51 19 51 22 0 24 -105 312 -114 311 -6 0
-33 -12 -60 -27z"/>
<path d="M4035 3627 c-38 -10 -71 -20 -73 -22 -2 -2 4 -27 13 -57 20 -72 43
-83 117 -62 29 9 54 17 56 19 5 4 -29 129 -37 136 -3 3 -37 -3 -76 -14z"/>
<path d="M5112 3609 c-19 -17 -32 -32 -30 -34 8 -9 88 38 88 51 0 22 -22 16
-58 -17z"/>
<path d="M300 3621 c0 -5 5 -22 12 -36 8 -18 14 -22 20 -13 6 11 8 10 8 0 0
-7 5 -10 10 -7 17 10 11 23 -20 45 -16 12 -30 17 -30 11z"/>
<path d="M5017 3603 c-42 -13 -75 -28 -73 -32 8 -13 110 13 141 36 37 28 30
27 -68 -4z"/>
<path d="M4667 3613 c-18 -5 -18 -12 4 -70 9 -24 17 -27 36 -15 9 5 9 18 0 50
-6 23 -14 41 -17 41 -3 -1 -13 -3 -23 -6z"/>
<path d="M6214 3605 c-4 -9 -20 -16 -38 -16 -21 -1 -25 -3 -11 -6 11 -3 25
-12 31 -21 9 -13 12 -11 18 14 4 16 13 32 19 36 9 6 9 8 -1 8 -7 0 -15 -7 -18
-15z"/>
<path d="M3860 3579 c-36 -10 -92 -19 -126 -19 -34 0 -75 -5 -91 -11 l-31 -10
20 -67 c11 -37 22 -68 23 -70 3 -4 307 78 314 84 7 6 -25 108 -35 110 -5 1
-38 -6 -74 -17z"/>
<path d="M4570 3591 c0 -4 7 -28 16 -53 15 -45 16 -46 45 -36 33 11 33 9 18
58 -10 33 -15 37 -45 38 -19 1 -34 -2 -34 -7z"/>
<path d="M5164 3583 c-11 -10 -35 -26 -54 -36 -19 -10 -56 -38 -82 -63 -43
-41 -46 -47 -37 -72 5 -15 12 -32 14 -39 3 -9 12 -9 39 2 20 8 64 15 99 15 79
0 132 29 132 72 0 24 -71 138 -86 138 -3 0 -14 -8 -25 -17z"/>
<path d="M2833 3569 c-35 -11 -63 -25 -63 -31 0 -16 111 -410 120 -428 5 -8
43 -23 87 -33 l78 -18 108 26 c74 19 107 32 107 42 0 8 -11 53 -24 101 -14 48
-27 108 -31 133 -6 45 -7 47 -45 52 -37 5 -187 72 -221 99 -9 7 -20 28 -23 46
-9 37 -11 37 -93 11z"/>
<path d="M4510 3574 c0 -40 24 -94 41 -94 27 0 30 13 16 61 -10 33 -18 45 -35
47 -15 2 -22 -2 -22 -14z"/>
<path d="M675 3553 c4 -10 18 -53 32 -96 18 -58 28 -77 39 -73 7 3 52 17 99
32 67 21 85 30 85 45 0 22 0 22 -36 9 -23 -9 -37 -6 -86 17 -38 19 -58 34 -58
46 0 18 -5 21 -54 32 -25 5 -28 4 -21 -12z"/>
<path d="M4423 3560 c-21 -8 -21 -9 -5 -57 9 -26 18 -50 19 -52 2 -2 21 1 44
8 32 10 39 16 34 29 -4 9 -11 32 -17 50 -9 34 -30 40 -75 22z"/>
<path d="M4816 3541 c-44 -15 -75 -30 -70 -34 12 -7 184 45 184 56 0 12 -32 6
-114 -22z"/>
<path d="M945 3551 c-3 -6 -3 -16 1 -22 3 -6 2 -14 -4 -18 -7 -4 -6 -16 3 -37
12 -29 18 -32 81 -42 38 -5 70 -9 71 -8 1 1 0 11 -3 23 -5 17 -16 22 -59 28
-53 6 -54 7 -57 42 -3 36 -20 54 -33 34z"/>
<path d="M5012 3527 c-37 -29 -54 -57 -34 -57 4 0 27 17 51 39 53 47 39 63
-17 18z"/>
<path d="M350 3540 c-13 -8 -9 -26 24 -125 45 -136 72 -160 91 -83 5 20 1 32
-15 48 -23 23 -70 127 -70 155 0 17 -9 19 -30 5z"/>
<path d="M4276 3524 c-50 -13 -91 -26 -94 -28 -2 -2 4 -29 13 -61 13 -44 21
-56 33 -52 10 3 51 15 92 27 41 12 78 25 82 29 8 7 -20 111 -30 110 -4 0 -47
-12 -96 -25z"/>
<path d="M2461 3459 c-173 -53 -262 -86 -278 -101 -21 -19 -36 -23 -91 -23
-66 0 -67 0 -70 -28 -2 -19 5 -40 22 -62 14 -18 26 -38 26 -44 0 -6 19 -11 43
-11 51 -1 74 -17 79 -55 3 -26 7 -30 38 -33 51 -4 92 -22 86 -38 -3 -9 2 -14
14 -14 22 0 56 -47 65 -92 7 -29 19 -36 31 -17 3 6 0 15 -7 20 -7 4 -10 11 -6
15 3 4 13 1 21 -5 11 -10 16 -9 23 2 11 19 60 43 106 51 45 8 47 25 12 88 -29
53 -68 175 -60 188 3 5 1 19 -5 31 -8 14 -8 25 -2 31 6 6 18 -14 32 -59 13
-37 29 -75 36 -84 8 -8 14 -23 14 -32 0 -10 18 -22 50 -34 44 -15 51 -22 56
-51 5 -26 10 -32 23 -26 9 4 46 9 84 12 37 2 67 9 67 14 0 9 -90 338 -111 406
-7 20 -17 32 -27 31 -9 -1 -131 -37 -271 -80z m-371 -219 c-14 -26 -19 -25
-30 6 -7 17 -6 32 1 46 11 21 12 21 26 -5 10 -20 11 -32 3 -47z m454 -135 c30
-38 31 -45 12 -45 -11 0 -66 70 -66 84 0 14 32 -9 54 -39z"/>
<path d="M3497 3510 c-54 -15 -100 -29 -102 -32 -2 -2 1 -21 7 -41 l11 -37
109 0 c80 0 108 3 108 13 0 6 -8 37 -18 68 l-17 57 -98 -28z"/>
<path d="M4840 3512 c-47 -16 -84 -32 -82 -37 1 -6 5 -10 10 -10 18 0 172 59
172 67 0 11 -5 10 -100 -20z"/>
<path d="M4969 3523 c-13 -17 -13 -17 6 -3 11 8 22 16 24 17 2 2 0 3 -6 3 -6
0 -17 -8 -24 -17z"/>
<path d="M235 3507 l-39 -12 35 -22 c32 -18 38 -29 58 -100 11 -44 21 -87 21
-96 0 -21 26 -22 34 -1 10 27 7 74 -8 107 -8 18 -22 56 -31 85 -9 28 -20 52
-23 51 -4 0 -25 -6 -47 -12z"/>
<path d="M1 3328 c-1 -104 1 -188 3 -188 3 0 31 11 63 24 32 13 97 36 144 50
l87 26 -5 38 c-2 20 -13 68 -24 105 -16 56 -25 70 -47 78 -14 6 -30 15 -33 21
-5 7 -33 2 -85 -16 -42 -14 -78 -25 -79 -23 -1 1 -6 18 -12 37 -9 28 -11 -3
-12 -152z"/>
<path d="M4853 3477 c-97 -37 -111 -55 -20 -26 95 31 117 41 117 50 0 13 -5
11 -97 -24z"/>
<path d="M4090 3470 c-37 -12 -61 -15 -72 -9 -22 12 -22 8 1 -66 22 -67 21
-67 118 -39 41 12 53 20 49 31 -4 9 -11 35 -17 59 -6 24 -14 44 -18 43 -3 -1
-31 -9 -61 -19z"/>
<path d="M4703 3483 c-22 -8 -14 -23 12 -23 18 0 23 4 19 15 -6 16 -11 17 -31
8z"/>
<path d="M3305 3458 c-33 -10 -67 -21 -75 -25 -19 -8 49 -22 114 -22 48 -1 48
-1 41 27 -3 15 -9 30 -13 33 -4 3 -34 -2 -67 -13z"/>
<path d="M3818 3427 c-80 -23 -149 -45 -153 -48 -7 -7 23 -119 35 -132 6 -7
304 67 318 79 6 4 -39 144 -46 143 -4 0 -73 -19 -154 -42z"/>
<path d="M4627 3463 c-24 -6 -16 -29 9 -25 32 5 44 11 44 22 0 10 -20 11 -53
3z"/>
<path d="M4840 3438 c-69 -21 -76 -25 -68 -33 2 -3 40 8 84 25 91 33 81 39
-16 8z"/>
<path d="M4475 3440 c-13 -5 -14 -9 -5 -9 8 0 24 4 35 9 13 5 14 9 5 9 -8 0
-24 -4 -35 -9z"/>
<path d="M4567 3443 c-13 -12 -7 -23 13 -23 11 0 20 7 20 15 0 15 -21 21 -33
8z"/>
<path d="M4710 3430 c0 -5 6 -10 14 -10 8 0 18 5 21 10 3 6 -3 10 -14 10 -12
0 -21 -4 -21 -10z"/>
<path d="M4860 3412 c-81 -29 -83 -32 -56 -94 l11 -28 83 29 c46 16 86 31 88
34 3 3 0 23 -7 46 -14 49 -18 49 -119 13z"/>
<path d="M715 3358 c-121 -38 -221 -71 -222 -72 -2 -1 7 -34 18 -72 12 -38 27
-98 34 -134 7 -36 14 -66 14 -67 5 -9 461 140 461 150 0 11 -80 267 -83 266
-1 0 -101 -32 -222 -71z"/>
<path d="M960 3423 c0 -23 85 -264 89 -252 2 8 31 53 63 100 32 47 58 88 58
92 0 11 -86 45 -131 52 -24 3 -52 9 -61 11 -10 3 -18 2 -18 -3z"/>
<path d="M1150 3411 c0 -27 31 -36 47 -15 20 27 16 34 -17 34 -23 0 -30 -5
-30 -19z"/>
<path d="M4490 3418 c-41 -12 -44 -14 -36 -27 4 -6 22 -4 51 6 25 8 42 19 39
24 -6 10 -8 10 -54 -3z"/>
<path d="M4648 3423 c-10 -2 -18 -10 -18 -18 0 -17 52 -5 58 13 4 12 -8 14
-40 5z"/>
<path d="M1156 3304 c-42 -64 -75 -119 -73 -121 3 -2 15 1 28 6 13 5 59 20
101 33 43 12 78 27 78 32 0 16 -42 151 -49 159 -5 4 -43 -45 -85 -109z"/>
<path d="M4380 3410 c-18 -12 -2 -12 25 0 13 6 15 9 5 9 -8 0 -22 -4 -30 -9z"/>
<path d="M4580 3400 c-8 -5 -11 -12 -8 -16 10 -9 38 3 38 16 0 12 -10 13 -30
0z"/>
<path d="M4725 3399 c-4 -6 -5 -12 -2 -15 7 -7 37 7 37 17 0 13 -27 11 -35 -2z"/>
<path d="M1723 3358 c-74 -24 -123 -45 -123 -53 0 -28 42 -151 56 -161 8 -6
14 -29 14 -52 0 -39 2 -41 35 -48 32 -6 35 -9 35 -40 0 -27 4 -34 20 -34 14 0
20 -7 20 -24 0 -32 24 -50 59 -43 32 7 41 -5 41 -54 0 -27 2 -28 26 -19 35 14
80 -14 95 -58 8 -25 15 -32 28 -27 9 4 59 20 111 35 115 33 221 76 232 93 17
27 7 64 -27 97 -19 18 -32 37 -29 42 3 4 -20 8 -50 8 -37 0 -69 7 -93 20 -21
11 -30 20 -20 20 24 0 21 17 -4 23 -17 5 -20 12 -17 31 4 22 3 24 -19 15 -13
-5 -28 -9 -33 -9 -5 0 -27 39 -50 87 -34 74 -39 91 -31 119 8 30 7 33 -18 43
-29 12 -111 31 -126 30 -5 -1 -65 -19 -132 -41z"/>
<path d="M3236 3348 c4 -29 15 -80 25 -113 10 -33 19 -67 19 -75 1 -37 14 -39
95 -16 91 27 87 14 48 152 l-25 91 -60 7 c-114 12 -110 14 -102 -46z"/>
<path d="M4275 3382 c-56 -18 -60 -20 -53 -27 2 -3 36 6 74 19 76 27 59 34
-21 8z"/>
<path d="M4331 3369 c-76 -26 -121 -49 -96 -49 5 0 51 12 102 26 59 17 93 32
93 40 0 18 1 18 -99 -17z"/>
<path d="M1274 3376 c4 -11 14 -42 23 -69 15 -47 17 -49 47 -44 17 3 45 11 61
17 l30 12 -59 28 c-32 16 -70 39 -84 52 -22 20 -24 21 -18 4z"/>
<path d="M3420 3377 c0 -11 36 -138 49 -169 6 -16 16 -28 23 -28 17 1 178 46
184 53 3 2 -4 35 -14 73 l-19 69 -112 5 c-61 3 -111 2 -111 -3z"/>
<path d="M4494 3377 c-17 -7 -29 -17 -27 -24 5 -13 93 13 93 28 0 12 -28 10
-66 -4z"/>
<path d="M4658 3383 c-19 -5 -22 -20 -12 -47 5 -14 10 -13 35 4 17 13 26 26
22 35 -5 15 -13 16 -45 8z"/>
<path d="M4594 3364 c-13 -5 -7 -51 8 -60 5 -3 15 -3 23 0 11 4 12 11 4 36
-11 30 -14 32 -35 24z"/>
<path d="M4707 3339 c-44 -27 -48 -33 -42 -57 4 -15 8 -29 10 -30 3 -4 106 27
113 33 5 5 -21 85 -27 85 -3 0 -28 -14 -54 -31z"/>
<path d="M4341 3331 c-52 -15 -97 -33 -99 -39 -2 -7 2 -12 10 -12 30 0 192 57
196 68 5 16 3 15 -107 -17z"/>
<path d="M5053 3344 c-37 -16 -39 -21 -18 -47 13 -18 16 -18 64 9 38 22 47 31
39 41 -13 16 -44 15 -85 -3z"/>
<path d="M4125 3335 l-40 -14 40 6 c22 3 49 9 60 14 l20 8 -20 0 c-11 0 -38
-7 -60 -14z"/>
<path d="M4508 3338 c-32 -11 -34 -16 -12 -46 12 -17 21 -21 42 -16 38 9 44
17 36 48 -7 28 -21 31 -66 14z"/>
<path d="M4127 3309 c-71 -18 -85 -25 -74 -35 7 -7 137 25 150 36 19 17 -12
16 -76 -1z"/>
<path d="M4058 3313 c7 -3 16 -2 19 1 4 3 -2 6 -13 5 -11 0 -14 -3 -6 -6z"/>
<path d="M4435 3315 c-5 -2 -49 -16 -97 -30 -49 -15 -88 -31 -88 -35 0 -5 4
-20 9 -33 l10 -25 103 31 c57 17 105 32 106 33 2 2 1 16 -3 33 -6 29 -15 35
-40 26z"/>
<path d="M1530 3299 c-64 -18 -63 -16 -41 -48 12 -16 21 -43 21 -59 0 -24 8
-35 35 -52 40 -25 75 -19 75 12 0 29 -39 158 -48 157 -4 0 -23 -5 -42 -10z"/>
<path d="M3930 3284 c-47 -14 -121 -35 -165 -48 -44 -13 -126 -36 -183 -52
-81 -22 -101 -31 -98 -43 3 -9 8 -28 12 -43 7 -33 5 -32 69 -12 28 8 146 42
264 74 117 32 215 61 217 63 5 4 -16 69 -25 78 -3 4 -44 -4 -91 -17z"/>
<path d="M4897 3286 c-67 -22 -72 -26 -65 -47 3 -10 148 55 148 66 0 7 -8 5
-83 -19z"/>
<path d="M5000 3302 c0 -4 -28 -22 -62 -40 -86 -44 -90 -46 -82 -65 5 -14 16
-11 84 23 71 35 77 41 73 64 -5 24 -13 36 -13 18z"/>
<path d="M4126 3271 c-33 -10 -62 -23 -64 -29 -2 -7 2 -12 9 -12 26 0 149 41
149 50 0 13 -24 11 -94 -9z"/>
<path d="M458 3274 c-5 -4 -8 -16 -8 -26 0 -12 -4 -16 -12 -12 -8 5 -9 2 -4
-12 5 -10 12 -34 16 -52 10 -42 11 -42 38 -35 20 5 22 10 16 37 -10 48 -38
109 -46 100z"/>
<path d="M4618 3255 c5 -29 13 -37 29 -27 14 9 -2 52 -20 52 -10 0 -13 -8 -9
-25z"/>
<path d="M1386 3254 c-27 -7 -53 -17 -57 -21 -4 -4 13 -75 38 -158 48 -161 53
-178 106 -358 19 -65 37 -120 40 -123 2 -3 45 8 93 24 49 16 104 33 121 36 18
4 35 11 37 15 6 9 -78 290 -105 350 -10 24 -19 52 -19 62 0 24 -15 32 -38 20
-14 -7 -29 -3 -65 20 -40 24 -47 34 -47 60 0 29 -34 90 -48 88 -4 -1 -29 -8
-56 -15z"/>
<path d="M4563 3262 c-24 -4 -27 -11 -17 -61 7 -36 14 -38 44 -13 20 16 21 20
8 48 -10 22 -19 29 -35 26z"/>
<path d="M4137 3230 c-33 -10 -61 -20 -63 -23 -4 -3 15 -67 22 -76 2 -2 37 9
78 24 l74 27 -9 31 c-5 18 -9 33 -9 34 0 7 -40 -1 -93 -17z"/>
<path d="M4747 3240 c-29 -9 -57 -28 -57 -39 0 -3 4 -12 9 -19 12 -20 123 31
115 52 -7 17 -24 19 -67 6z"/>
<path d="M340 3230 c-27 -17 63 -260 97 -260 13 0 14 7 9 38 -3 20 -6 43 -6
50 0 7 -10 17 -22 22 -16 6 -18 9 -6 9 15 1 15 6 1 58 -24 92 -36 106 -73 83z"/>
<path d="M4381 3209 c-52 -16 -96 -31 -98 -33 -6 -6 7 -70 17 -86 7 -12 19
-12 72 -1 64 13 168 54 168 67 0 4 -5 24 -12 45 -14 48 -20 48 -147 8z"/>
<path d="M185 3188 c-49 -17 -111 -40 -137 -51 l-48 -20 0 -185 0 -185 44 41
c44 41 176 113 229 126 15 4 53 16 83 27 l55 21 -19 31 c-11 18 -30 64 -42
102 -29 89 -47 125 -63 124 -6 -1 -52 -15 -102 -31z"/>
<path d="M1199 3196 c-81 -24 -139 -58 -139 -81 0 -8 16 -67 36 -132 20 -65
59 -194 85 -288 27 -93 53 -173 58 -178 9 -9 234 53 249 68 5 5 -4 41 -39 145
-4 14 -19 63 -32 110 -101 352 -110 380 -126 379 -9 0 -50 -11 -92 -23z"/>
<path d="M3870 3155 c-85 -25 -200 -57 -255 -71 -55 -15 -101 -28 -103 -30 -6
-4 30 -124 38 -129 4 -2 56 13 116 34 60 22 129 46 154 55 25 9 98 18 163 22
83 4 117 10 114 18 -2 6 -12 41 -22 79 -13 48 -22 67 -34 66 -9 0 -86 -20
-171 -44z"/>
<path d="M4645 3189 c-11 -17 1 -21 15 -4 8 9 8 15 2 15 -6 0 -14 -5 -17 -11z"/>
<path d="M4758 3174 c-49 -25 -53 -30 -40 -51 11 -17 113 36 110 56 -5 23 -20
22 -70 -5z"/>
<path d="M2115 3170 c-8 -13 5 -13 25 0 13 8 13 10 -2 10 -9 0 -20 -4 -23 -10z"/>
<path d="M4660 3160 c-8 -5 -12 -11 -9 -14 2 -3 11 -1 19 4 8 5 12 11 9 14 -2
3 -11 1 -19 -4z"/>
<path d="M4168 3137 c-31 -13 -59 -25 -62 -28 -4 -3 -1 -20 5 -37 9 -27 16
-32 42 -32 34 0 94 15 114 28 18 12 -4 92 -26 91 -9 0 -42 -10 -73 -22z"/>
<path d="M3435 3145 c-5 -2 -42 -13 -81 -25 l-72 -20 10 -40 c6 -22 16 -40 22
-40 6 0 48 10 94 22 64 18 81 26 76 38 -3 8 -8 27 -11 43 -5 25 -14 30 -38 22z"/>
<path d="M4604 3136 c-10 -8 -16 -17 -13 -20 3 -3 14 1 25 8 10 8 16 17 13 20
-3 3 -14 -1 -25 -8z"/>
<path d="M2156 3125 c4 -8 8 -15 10 -15 2 0 4 7 4 15 0 8 -4 15 -10 15 -5 0
-7 -7 -4 -15z"/>
<path d="M493 3119 c-26 -10 -26 -10 -12 -64 16 -63 17 -65 34 -59 11 4 15 20
14 53 -1 65 -9 80 -36 70z"/>
<path d="M962 3119 c-31 -9 -32 -10 -16 -34 21 -32 26 -31 47 4 26 45 25 46
-31 30z"/>
<path d="M4622 3109 c-26 -11 -42 -24 -39 -31 2 -7 11 -11 18 -9 8 2 23 5 34
5 29 2 64 27 58 43 -7 17 -19 16 -71 -8z"/>
<path d="M4500 3094 l-35 -14 35 6 c19 3 39 10 45 15 13 13 -3 10 -45 -7z"/>
<path d="M740 3049 c-87 -27 -161 -56 -167 -66 -7 -9 -13 -29 -13 -44 0 -29
46 -74 121 -116 35 -20 38 -20 75 -3 57 25 100 65 155 143 l49 70 -20 31 c-10
17 -25 32 -32 33 -7 1 -83 -21 -168 -48z"/>
<path d="M989 3041 c-24 -34 -69 -95 -100 -134 -52 -66 -64 -75 -137 -106
l-80 -34 24 -76 c14 -45 24 -101 24 -138 l0 -62 63 18 c34 10 107 33 162 51
55 17 131 41 168 53 68 20 68 21 61 51 -7 34 -107 350 -128 405 l-13 35 -44
-63z"/>
<path d="M3168 3071 c-31 -9 -59 -19 -62 -22 -3 -3 17 -18 44 -33 41 -23 58
-26 90 -21 22 4 42 10 45 14 2 4 -1 24 -7 44 -13 42 -21 44 -110 18z"/>
<path d="M4504 3073 c-16 -3 -20 -9 -17 -24 4 -14 14 -19 42 -19 44 0 51 5 44
31 -5 19 -21 22 -69 12z"/>
<path d="M2928 3063 c7 -3 16 -2 19 1 4 3 -2 6 -13 5 -11 0 -14 -3 -6 -6z"/>
<path d="M4431 3051 c-18 -11 -5 -31 20 -31 21 0 22 1 13 24 -7 18 -13 19 -33
7z"/>
<path d="M3400 3023 c-47 -14 -86 -26 -88 -27 -6 -7 29 -100 40 -107 28 -18
143 -4 170 20 8 7 -19 121 -30 132 -4 4 -45 -4 -92 -18z"/>
<path d="M4377 3034 c-9 -10 2 -24 18 -24 9 0 12 6 9 15 -6 16 -17 19 -27 9z"/>
<path d="M1683 3013 c6 -22 96 -313 102 -329 2 -8 34 -3 102 18 54 17 100 32
102 34 2 2 -2 17 -9 34 -13 32 -45 46 -80 35 -31 -10 -52 12 -45 47 6 26 5 28
-28 28 -36 0 -67 24 -67 53 0 11 -8 17 -25 17 -22 0 -25 4 -25 34 0 22 -6 36
-16 40 -12 5 -15 2 -11 -11z"/>
<path d="M4215 3009 c-72 -25 -71 -24 -55 -44 10 -12 10 -15 -2 -15 -8 0 -18
4 -23 9 -6 6 -26 6 -50 1 -22 -5 -62 -13 -89 -17 -43 -7 -53 -13 -80 -52 -34
-48 -80 -71 -178 -92 -32 -6 -58 -16 -58 -20 0 -14 29 -11 105 11 79 23 105
25 105 9 0 -19 -44 -48 -60 -39 -18 9 -80 1 -80 -11 0 -4 5 -20 12 -34 8 -19
19 -25 42 -25 41 0 81 21 81 43 0 10 6 21 13 26 10 6 10 14 2 35 -8 21 -7 28
5 32 8 4 15 17 15 31 0 22 3 24 28 19 15 -3 51 3 82 14 50 17 56 17 72 3 24
-21 23 -25 -11 -48 -17 -11 -28 -21 -26 -23 2 -3 36 19 75 48 67 49 82 71 60
85 -14 8 -13 35 1 35 7 0 18 -8 25 -17 13 -16 13 -16 8 -1 -4 13 2 18 31 24
20 3 34 11 32 17 -6 18 -19 17 -82 -4z m-421 -293 c-3 -9 -10 -13 -15 -10 -5
3 -3 11 4 19 15 16 19 13 11 -9z"/>
<path d="M2745 3006 c-52 -12 -119 -44 -170 -81 -16 -12 -45 -28 -63 -35 -26
-10 -30 -15 -21 -26 16 -20 27 -17 55 14 24 25 57 46 114 72 14 7 39 19 55 27
17 9 53 21 80 28 62 16 18 16 -50 1z"/>
<path d="M2925 3000 c33 -11 77 -20 98 -20 24 0 51 -9 69 -21 17 -12 47 -23
67 -24 35 -3 35 -2 -19 22 -49 23 -221 64 -260 62 -8 0 12 -9 45 -19z"/>
<path d="M4145 3010 c-16 -7 -17 -9 -3 -9 9 -1 20 4 23 9 7 11 7 11 -20 0z"/>
<path d="M4330 3009 c0 -5 5 -7 10 -4 6 3 10 8 10 11 0 2 -4 4 -10 4 -5 0 -10
-5 -10 -11z"/>
<path d="M2542 2995 c-49 -15 -72 -31 -72 -51 0 -20 19 -17 54 9 17 13 45 31
61 40 36 20 16 21 -43 2z"/>
<path d="M3890 3000 c-45 -5 -198 -56 -310 -103 -14 -6 -47 -18 -74 -26 -27
-9 -49 -20 -49 -26 -1 -19 66 -55 102 -55 40 0 168 23 221 39 68 21 109 46
121 74 16 39 44 54 114 62 79 8 95 14 95 31 0 11 -17 14 -82 13 -46 -1 -108
-5 -138 -9z"/>
<path d="M3241 2979 c-13 -5 -32 -7 -42 -4 -38 12 -17 -6 44 -37 34 -18 65
-34 68 -36 4 -1 2 18 -4 43 -11 47 -20 52 -66 34z"/>
<path d="M514 2966 c-6 -15 18 -104 37 -138 5 -10 9 -27 9 -37 0 -28 15 -34
54 -21 44 14 39 35 -24 94 -39 37 -48 51 -47 77 2 34 -19 52 -29 25z"/>
<path d="M441 2940 c-1 -23 54 -171 61 -165 3 3 -5 34 -18 68 -34 95 -43 113
-43 97z"/>
<path d="M315 2911 c-119 -42 -212 -90 -267 -140 -44 -40 -47 -45 -34 -60 9
-10 40 -27 70 -40 l55 -22 47 20 c25 12 57 21 69 21 12 0 30 9 40 20 21 23 42
25 82 8 34 -13 60 -11 90 8 l23 14 -35 98 c-19 53 -35 98 -35 100 0 6 -32 -2
-105 -27z"/>
<path d="M2435 2910 c-8 -13 5 -13 25 0 13 8 13 10 -2 10 -9 0 -20 -4 -23 -10z"/>
<path d="M3210 2912 c0 -14 42 -47 94 -76 48 -26 204 -72 213 -62 8 8 -30 24
-97 41 -95 23 -121 35 -163 72 -38 34 -47 39 -47 25z"/>
<path d="M5175 2890 c-3 -5 -19 -10 -35 -10 -23 0 -30 -5 -35 -30 -4 -16 -1
-46 5 -65 11 -33 9 -40 -20 -88 -48 -77 -180 -189 -239 -202 -42 -10 -46 -13
-44 -38 2 -28 -14 -37 -67 -36 -55 1 -88 -13 -94 -37 -9 -33 -46 -50 -75 -35
-12 7 -19 16 -15 22 4 6 11 6 20 -2 24 -20 16 1 -17 42 -34 43 -54 49 -62 19
-5 -20 -37 -29 -37 -10 0 6 -6 10 -14 10 -8 0 -16 10 -18 22 -2 14 -13 24 -30
29 -28 7 -28 7 -28 -39 0 -60 5 -67 60 -83 44 -13 63 -26 54 -40 -2 -4 3 -20
11 -35 8 -15 13 -29 11 -31 -1 -1 -17 3 -34 9 -24 9 -37 10 -50 2 -13 -8 -23
-8 -39 4 -31 19 -29 42 2 42 34 0 32 19 -4 31 -16 6 -32 20 -35 32 -12 44 -6
182 8 209 11 20 12 37 6 60 -7 21 -6 36 1 45 8 9 8 22 0 45 -12 33 -3 49 31
60 13 5 -1 38 -16 38 -6 0 -26 -4 -43 -9 -30 -9 -35 -7 -67 30 l-34 40 -16
-23 c-9 -13 -20 -22 -24 -21 -4 1 -44 -28 -90 -65 -61 -49 -82 -72 -80 -87 2
-11 8 -20 13 -20 24 0 92 -66 169 -165 93 -119 116 -157 116 -193 0 -13 9 -32
20 -42 11 -10 20 -26 20 -37 0 -16 9 -18 88 -18 75 0 89 3 99 19 6 10 39 28
73 39 33 12 75 32 91 47 17 14 37 25 44 25 8 0 19 9 25 20 6 11 27 29 48 39
54 28 272 256 305 320 l28 54 49 -6 c38 -5 50 -3 54 9 7 18 3 26 -38 76 -33
40 -41 44 -51 28z"/>
<path d="M2395 2798 c-26 -29 -51 -62 -56 -73 -52 -130 -72 -197 -59 -205 20
-12 37 -2 50 31 7 16 18 29 25 29 7 0 18 26 25 59 15 70 43 121 71 128 10 3
19 12 19 19 0 8 8 14 17 14 14 0 12 4 -7 25 -13 14 -27 25 -31 25 -4 0 -28
-24 -54 -52z"/>
<path d="M2260 2796 c-193 -53 -180 -48 -165 -69 7 -10 23 -26 35 -34 19 -14
27 -13 81 7 45 17 69 34 100 71 23 27 39 49 37 48 -1 0 -41 -11 -88 -23z"/>
<path d="M5027 2736 c-48 -58 -64 -93 -49 -108 13 -13 66 28 96 73 17 28 16
79 -2 79 -4 0 -24 -20 -45 -44z"/>
<path d="M612 2733 c-17 -17 -27 -36 -25 -48 7 -38 56 -200 64 -208 4 -5 16
-6 28 -2 19 6 21 14 21 77 0 73 -33 208 -51 208 -5 0 -22 -12 -37 -27z"/>
<path d="M3617 2727 c7 -34 82 -63 98 -37 3 5 0 7 -9 4 -8 -3 -23 -1 -33 5
-10 6 -13 11 -6 11 6 0 9 9 6 20 -4 14 -14 20 -33 20 -23 0 -27 -4 -23 -23z"/>
<path d="M2040 2730 c-13 -8 -11 -14 11 -36 16 -16 35 -24 48 -22 21 3 21 4
-11 35 -24 24 -37 30 -48 23z"/>
<path d="M1888 2687 l-97 -32 14 -38 c7 -21 15 -40 17 -42 3 -3 174 50 225 69
14 6 10 13 -17 41 -19 19 -36 35 -39 34 -4 0 -50 -15 -103 -32z"/>
<path d="M305 2690 c-10 -11 -29 -20 -41 -20 -13 0 -47 -11 -77 -24 l-53 -23
-67 32 -67 32 0 -230 c0 -127 4 -227 8 -221 13 14 100 128 191 249 46 61 106
133 133 161 48 49 49 51 26 57 -33 9 -33 9 -53 -13z"/>
<path d="M506 2683 c-2 -10 -10 -54 -17 -98 -10 -72 -15 -84 -52 -122 -22 -23
-49 -44 -61 -47 -21 -5 -46 -53 -46 -87 0 -8 21 -32 46 -53 l45 -38 22 20 c12
12 41 24 63 28 l42 6 -15 54 c-17 67 -7 90 42 100 27 5 34 10 30 23 -2 9 -19
63 -37 120 -32 102 -51 130 -62 94z"/>
<path d="M2270 2689 c-8 -5 -34 -14 -57 -20 -24 -6 -43 -14 -43 -18 0 -10 51
-57 76 -69 19 -10 23 -7 40 43 19 58 13 83 -16 64z"/>
<path d="M4411 2663 c-17 -44 16 -145 52 -157 36 -13 40 -6 22 44 -8 23 -15
53 -15 67 0 24 -26 73 -40 73 -4 0 -13 -12 -19 -27z"/>
<path d="M404 2636 c-4 -26 -12 -40 -25 -43 -15 -4 -19 -15 -19 -48 0 -26 -6
-47 -15 -55 -8 -7 -15 -28 -15 -46 l0 -34 38 19 c63 33 89 69 102 141 6 36 14
75 17 88 5 21 3 22 -35 20 -39 -3 -41 -5 -48 -42z"/>
<path d="M330 2623 c-33 -40 -44 -54 -100 -129 -19 -25 -48 -63 -65 -85 -16
-21 -46 -59 -65 -85 -19 -25 -50 -64 -67 -86 -29 -36 -33 -47 -33 -102 l0 -63
64 -61 c35 -34 67 -62 70 -62 3 0 34 38 70 83 36 46 72 90 81 97 8 7 15 19 15
27 0 7 16 28 36 45 37 32 33 48 -12 48 -11 0 -28 8 -37 18 -13 14 -14 25 -6
62 6 25 14 49 20 55 5 5 9 30 9 56 0 29 6 51 15 59 10 8 15 30 15 62 0 41 3
51 20 55 11 3 20 14 20 24 0 29 -15 23 -50 -18z"/>
<path d="M1715 2635 c-22 -8 -74 -25 -115 -38 -68 -22 -75 -27 -72 -48 6 -51
20 -53 148 -19 65 17 119 32 121 33 1 2 -3 22 -9 45 -11 46 -14 47 -73 27z"/>
<path d="M4497 2633 c-10 -9 -9 -23 2 -23 5 0 11 7 15 15 5 15 -5 20 -17 8z"/>
<path d="M2154 2603 c1 -22 9 -32 39 -46 21 -11 45 -16 55 -12 14 5 10 10 -20
29 -21 12 -46 30 -56 39 -18 17 -19 16 -18 -10z"/>
<path d="M1949 2579 c-107 -37 -116 -42 -112 -62 3 -12 18 -65 34 -117 16 -52
38 -124 48 -160 11 -36 34 -112 51 -169 l31 -104 21 20 c16 16 24 50 39 154
14 98 28 155 53 214 18 44 36 87 39 97 3 9 18 19 34 22 16 4 34 15 41 26 11
18 8 21 -25 35 -60 23 -68 30 -71 59 -3 22 -8 26 -35 25 -18 0 -84 -18 -148
-40z"/>
<path d="M2486 2595 c-4 -14 -13 -25 -22 -25 -8 0 -17 -7 -20 -15 -8 -20 -19
-19 -40 2 -16 16 -18 16 -33 -3 -9 -12 -23 -23 -31 -27 -12 -4 -11 -6 3 -6 11
-1 17 -9 17 -26 0 -14 4 -25 10 -25 5 0 18 -9 28 -20 l19 -21 -4 23 c-3 15 6
35 27 60 27 33 34 36 67 31 32 -5 36 -4 30 11 -4 10 -10 29 -13 42 -8 31 -30
31 -38 -1z"/>
<path d="M1138 2605 c-3 -3 -93 -33 -199 -66 -107 -33 -197 -63 -202 -68 -4
-4 5 -23 19 -42 14 -18 29 -40 33 -48 7 -11 29 -7 122 22 63 19 152 47 199 61
117 36 113 32 95 94 -13 43 -20 52 -39 52 -12 0 -25 -2 -28 -5z"/>
<path d="M4910 2601 c0 -14 28 -33 40 -26 20 12 10 35 -15 35 -14 0 -25 -4
-25 -9z"/>
<path d="M4555 2577 c-6 -7 -15 -19 -20 -27 -8 -13 -7 -13 9 0 18 14 18 13 14
-22 l-4 -38 73 -24 c54 -18 73 -21 73 -12 0 16 51 9 62 -8 4 -6 10 -7 15 -3
17 18 -16 42 -67 50 -61 8 -112 40 -103 63 10 27 -32 44 -52 21z"/>
<path d="M4796 2581 c15 -14 54 -23 54 -13 0 5 -10 12 -22 16 -33 8 -44 8 -32
-3z"/>
<path d="M4865 2570 c3 -5 8 -10 11 -10 2 0 4 5 4 10 0 6 -5 10 -11 10 -5 0
-7 -4 -4 -10z"/>
<path d="M4656 2557 c-29 -21 -10 -37 45 -37 47 0 50 2 47 23 -2 17 -10 23
-38 25 -19 2 -44 -3 -54 -11z"/>
<path d="M1450 2550 c-14 -4 -64 -20 -112 -34 -71 -22 -88 -30 -88 -46 0 -39
35 -43 131 -16 50 14 95 26 102 26 29 1 38 16 26 48 -11 33 -18 36 -59 22z"/>
<path d="M4890 2541 c0 -18 18 -21 30 -6 10 13 9 15 -9 15 -11 0 -21 -4 -21
-9z"/>
<path d="M4775 2530 c3 -5 26 -10 51 -10 24 0 44 5 44 10 0 6 -23 10 -51 10
-31 0 -48 -4 -44 -10z"/>
<path d="M1695 2499 c-55 -16 -102 -34 -103 -39 -2 -6 -8 -8 -13 -5 -5 4 -6
-1 -3 -9 3 -9 9 -16 12 -16 3 0 57 16 119 36 69 21 113 40 111 46 -6 18 -17
17 -123 -13z"/>
<path d="M5387 2523 c-2 -5 4 -16 15 -25 18 -18 23 -12 12 16 -6 17 -20 21
-27 9z"/>
<path d="M2241 2491 c-6 -10 -24 -24 -40 -31 -47 -19 -99 -152 -123 -314 -20
-141 -39 -186 -89 -211 -36 -19 -37 -25 -1 -25 23 0 34 12 82 93 70 117 69
115 71 190 1 34 5 67 9 72 4 6 11 27 14 48 4 22 12 49 18 62 12 26 80 63 86
46 2 -6 7 -9 11 -6 5 2 18 -6 30 -19 l21 -23 -20 -18 c-13 -11 -20 -31 -20
-52 0 -33 -1 -34 -34 -32 -40 4 -51 -3 -42 -26 5 -15 7 -15 22 -1 21 22 40 20
58 -6 l16 -22 0 22 c0 12 9 31 20 42 11 11 20 23 20 28 0 4 12 25 26 45 27 40
26 60 -1 37 -22 -18 -61 16 -43 37 8 10 13 11 18 2 5 -8 10 -8 14 0 8 12 -71
57 -93 52 -9 -2 -12 3 -8 13 9 22 -10 20 -22 -3z"/>
<path d="M1140 2453 c-41 -13 -93 -29 -115 -35 -67 -17 -225 -72 -225 -78 0
-3 4 -11 9 -19 8 -13 25 -12 117 8 59 12 148 35 198 52 49 16 97 29 104 29 10
0 12 7 8 23 -3 12 -6 28 -6 35 0 15 1 15 -90 -15z"/>
<path d="M1715 2451 c-44 -16 -88 -32 -98 -36 -20 -9 -17 -25 20 -98 29 -59
63 -219 63 -302 0 -57 13 -119 29 -137 4 -4 36 2 71 13 36 11 81 23 100 26 19
3 47 11 62 19 l26 14 -34 117 c-19 65 -46 152 -59 193 -13 41 -33 108 -45 148
-24 84 -20 82 -135 43z"/>
<path d="M665 2450 c-4 -6 5 -31 20 -55 21 -37 31 -45 55 -45 37 0 37 11 5 67
-19 32 -32 43 -50 43 -13 0 -27 -5 -30 -10z"/>
<path d="M1465 2434 c-27 -7 -53 -13 -57 -14 -3 0 -4 -9 -1 -20 4 -13 11 -19
22 -16 9 3 42 10 74 17 55 12 78 29 38 29 -11 0 -21 4 -23 9 -1 5 -25 2 -53
-5z"/>
<path d="M561 2419 c-21 -8 -22 -13 -16 -46 11 -58 23 -76 48 -69 12 3 28 6
35 6 10 0 12 9 8 30 -3 17 -9 44 -12 60 -6 32 -20 36 -63 19z"/>
<path d="M4600 2400 c13 -23 20 -26 20 -6 0 8 -7 16 -15 20 -13 4 -14 2 -5
-14z"/>
<path d="M1320 2398 c-43 -12 -52 -19 -41 -37 6 -10 21 -12 52 -7 55 8 74 20
66 40 -7 18 -25 19 -77 4z"/>
<path d="M1495 2382 c-73 -21 -78 -34 -36 -101 36 -59 61 -162 43 -183 -6 -8
-34 -20 -63 -27 -50 -13 -51 -14 -45 -45 3 -17 13 -56 22 -86 9 -30 21 -73 26
-95 6 -22 14 -44 18 -48 6 -7 237 56 248 68 3 2 -1 19 -8 37 -6 18 -14 62 -16
98 -14 175 -80 402 -117 399 -7 0 -39 -8 -72 -17z"/>
<path d="M1240 2373 c0 -7 -6 -10 -13 -7 -7 2 -73 -11 -147 -31 -74 -20 -161
-40 -193 -46 -56 -11 -58 -12 -52 -38 4 -14 8 -28 11 -30 4 -4 387 108 405
120 8 5 8 12 0 25 -6 11 -11 14 -11 7z"/>
<path d="M306 2328 c-11 -37 -1 -58 25 -58 20 0 21 1 6 18 -8 9 -17 28 -19 42
l-4 25 -8 -27z"/>
<path d="M1335 2338 c-16 -6 -31 -12 -33 -13 -4 -4 66 -226 76 -242 9 -15 84
4 107 28 14 14 14 20 0 60 -8 24 -29 74 -47 111 -35 72 -43 77 -103 56z"/>
<path d="M750 2320 c-14 -10 -21 -22 -17 -26 4 -4 7 -2 7 5 0 7 9 9 25 5 19
-5 25 -2 25 9 0 25 -14 27 -40 7z"/>
<path d="M1060 2264 c-317 -97 -310 -94 -310 -123 0 -30 56 -221 68 -233 5 -5
35 0 68 11 32 10 136 42 229 71 226 68 235 72 235 89 0 8 -17 66 -37 128 -32
96 -40 113 -58 112 -11 -1 -99 -25 -195 -55z"/>
<path d="M690 2301 c0 -5 5 -13 10 -16 6 -3 10 -2 10 4 0 5 -4 13 -10 16 -5 3
-10 2 -10 -4z"/>
<path d="M605 2285 c-27 -8 -66 -17 -86 -20 -21 -3 -49 -15 -63 -26 l-26 -20
20 -38 c10 -21 30 -45 43 -54 21 -14 27 -14 60 1 45 21 102 96 106 140 1 17 1
32 -1 31 -2 0 -25 -7 -53 -14z"/>
<path d="M671 2278 c-1 -28 12 -37 24 -18 3 6 2 10 -4 10 -5 0 -12 8 -14 18
-3 10 -5 6 -6 -10z"/>
<path d="M766 2260 c-11 -3 -20 -16 -21 -28 -1 -11 2 -19 6 -16 4 2 10 0 14
-6 16 -27 67 -4 59 27 -7 24 -30 33 -58 23z"/>
<path d="M672 2197 c-41 -42 -40 -48 3 -34 33 10 49 37 23 37 -9 0 -8 3 2 10
8 5 12 11 9 14 -3 3 -20 -9 -37 -27z"/>
<path d="M362 2164 c-45 -38 -46 -54 -6 -54 19 0 24 -5 24 -25 0 -16 6 -25 16
-25 9 0 30 -12 47 -26 l31 -26 18 22 c25 31 23 41 -16 79 -19 19 -40 47 -47
62 -6 16 -15 29 -18 29 -4 0 -26 -16 -49 -36z"/>
<path d="M637 2132 c-24 -11 -57 -41 -88 -81 l-50 -64 34 -36 c22 -23 37 -51
42 -76 4 -22 17 -49 31 -62 18 -16 24 -33 24 -61 0 -43 10 -52 58 -52 48 0 53
-11 50 -89 -3 -70 -2 -72 26 -89 21 -12 30 -14 33 -5 2 6 19 31 36 54 18 23
36 48 41 54 6 9 -8 69 -43 176 -29 90 -62 193 -73 229 -11 36 -24 69 -29 75
-5 5 -9 17 -9 27 0 23 -31 23 -83 0z"/>
<path d="M222 2018 l-73 -92 53 -49 c47 -45 52 -53 49 -88 -1 -22 1 -39 6 -39
9 0 78 78 152 173 l53 67 -28 23 c-15 12 -37 24 -48 27 -12 3 -22 16 -24 28
-2 14 -10 22 -22 22 -10 0 -22 5 -25 10 -3 6 -9 10 -13 10 -4 0 -40 -41 -80
-92z"/>
<path d="M520 2084 c0 -14 3 -14 15 -4 8 7 15 14 15 16 0 2 -7 4 -15 4 -8 0
-15 -7 -15 -16z"/>
<path d="M0 1921 c0 -69 1 -122 2 -120 2 3 29 32 61 65 l57 60 -60 59 -60 59
0 -123z"/>
<path d="M1190 1996 c-74 -23 -184 -58 -244 -76 -59 -19 -110 -40 -113 -47 -3
-6 13 -63 34 -125 l39 -113 37 2 c35 1 95 18 370 105 148 46 138 22 84 196
-27 86 -35 102 -52 101 -11 0 -81 -20 -155 -43z"/>
<path d="M433 1908 c-71 -88 -133 -171 -133 -179 0 -10 370 -364 380 -364 10
0 90 104 90 116 0 3 -16 19 -36 34 -38 29 -39 36 -18 127 6 26 4 27 -53 38
-58 12 -59 13 -55 41 6 42 -5 77 -28 84 -14 5 -21 19 -26 55 -5 36 -14 56 -38
79 l-32 31 -51 -62z"/>
<path d="M66 1839 l-66 -71 0 -174 c0 -96 2 -174 4 -174 3 0 162 198 239 298
7 9 6 17 -1 24 -7 7 -12 27 -12 45 0 34 -5 41 -66 96 l-31 28 -67 -72z"/>
<path d="M1862 1890 c-40 -11 -148 -42 -240 -71 -496 -152 -593 -182 -662
-206 -100 -34 -102 -36 -134 -82 l-28 -40 52 -60 52 -60 42 45 c39 43 44 46
101 49 33 1 68 6 78 10 10 4 17 3 17 -4 0 -18 22 -12 49 13 21 20 47 27 137
40 119 17 144 15 144 -15 0 -10 4 -19 8 -19 5 0 7 15 4 33 -3 25 -2 30 8 20 7
-7 25 -9 41 -6 35 7 59 -11 59 -43 0 -23 -34 -51 -57 -46 -6 1 -14 -2 -18 -8
-4 -6 12 -10 45 -10 49 0 50 1 44 25 -4 16 0 34 10 49 14 23 14 25 -6 38 -17
11 -19 18 -10 34 6 12 7 26 1 36 -7 13 -2 19 27 28 20 7 49 10 65 6 15 -3 31
-1 34 4 3 6 17 10 30 10 41 0 56 12 76 57 10 24 25 46 34 49 9 4 15 19 15 39
0 24 9 44 34 69 18 20 31 36 27 35 -3 0 -39 -9 -79 -19z m-419 -299 c6 -23
-22 -38 -35 -19 -11 19 -10 36 5 41 17 6 24 1 30 -22z"/>
<path d="M205 1618 c-38 -51 -101 -132 -139 -182 l-68 -90 6 -66 7 -65 157
-157 c86 -87 160 -157 163 -155 9 3 140 171 251 321 l88 119 -143 137 c-132
127 -245 231 -250 230 -1 -1 -33 -42 -72 -92z"/>
<path d="M765 1443 c-28 -42 -320 -430 -459 -607 l-29 -36 38 -33 c41 -34 64
-58 93 -96 11 -14 24 -21 31 -17 8 5 2 16 -19 36 -37 35 -37 46 1 90 24 29 31
32 39 20 6 -10 4 -22 -6 -38 -17 -26 -11 -42 17 -42 11 0 17 -5 14 -10 -11
-18 6 -50 25 -50 10 0 22 5 25 10 3 6 2 10 -3 10 -5 0 -8 28 -7 63 1 43 -2 67
-12 79 -22 25 -7 41 22 22 22 -14 23 -14 29 13 4 16 16 42 27 58 l21 30 -6
-35 c-3 -20 0 -45 7 -58 l13 -23 24 26 c13 14 18 25 11 25 -7 0 9 18 34 40 28
24 56 40 72 40 24 0 25 2 20 40 -5 36 -4 39 14 30 13 -7 25 -7 39 2 22 14 21
48 -2 95 -8 17 -8 30 0 48 7 14 12 37 12 50 0 13 9 47 20 75 l20 51 -52 60
c-29 32 -53 59 -54 59 -1 0 -10 -12 -19 -27z m73 -355 c-3 -25 -17 -32 -37
-19 -12 8 -12 12 -2 25 20 24 43 20 39 -6z"/>
<path d="M0 1035 l0 -162 25 5 c33 6 33 -14 0 -22 l-25 -6 0 -191 0 -191 23
29 c105 128 218 286 213 298 -3 8 -18 15 -33 15 -29 -1 -142 49 -143 63 0 13
29 7 62 -13 18 -11 47 -20 63 -20 17 0 41 -7 54 -16 23 -16 25 -16 43 7 40 51
43 46 -124 211 l-158 156 0 -163z"/>
<path d="M248 762 c-8 -9 -21 -27 -29 -39 -8 -11 -60 -80 -116 -152 -95 -120
-103 -133 -103 -173 1 -34 3 -39 11 -25 5 9 18 17 29 17 10 0 31 10 47 23 15
13 48 35 73 49 54 31 102 89 136 162 13 30 31 59 39 66 12 10 10 16 -13 39
-52 50 -57 53 -74 33z"/>
<path d="M0 261 c0 -11 4 -21 9 -21 18 0 21 18 6 30 -13 10 -15 9 -15 -9z"/>
</g>
</svg>
